<svg width="440" height="102" viewBox="0 0 440 102" fill="none" xmlns="http://www.w3.org/2000/svg">
<g clip-path="url(#clip0_1_5)">
<g clip-path="url(#clip1_1_5)">
<path d="M61.5669 2.14556C62.1987 2.36104 62.8273 2.58376 63.4552 2.81055C64.3687 3.13337 65.2887 3.43347 66.2099 3.73388C66.9204 3.96953 67.6309 4.20555 68.3412 4.44192C68.6786 4.55182 69.016 4.66171 69.3636 4.77494C71.9717 5.66276 74.3569 6.77465 76.1488 8.93897C76.3158 9.13552 76.4827 9.33208 76.6548 9.53459C77.6534 10.9011 77.7992 12.0091 77.779 13.6848C77.7765 14.0282 77.7765 14.0282 77.774 14.3786C77.729 16.968 77.398 19.5066 77.0291 22.0665C76.9602 22.5626 76.8913 23.0587 76.8225 23.5547C76.3685 26.768 75.8223 29.9514 75.1308 33.1231C75.0705 33.4004 75.0102 33.6777 74.948 33.9634C74.8952 34.1959 74.8425 34.4284 74.7881 34.668C74.3825 37.0058 74.2847 39.3455 74.2777 41.7138C74.2747 42.1558 74.2747 42.1558 74.2715 42.6068C74.2673 43.2415 74.2636 43.8761 74.2605 44.5107C74.2555 45.5193 74.2483 46.5279 74.2407 47.5364C74.2191 50.4023 74.2006 53.2682 74.1849 56.1341C74.1751 57.8926 74.1624 59.6511 74.1481 61.4096C74.1432 62.0749 74.1394 62.7403 74.1368 63.4056C74.0889 75.278 74.0889 75.278 70.3505 79.0163C67.5281 81.2212 64.7529 82.1169 61.1962 82.141C60.9206 82.1441 60.6451 82.1471 60.3611 82.1502C59.4462 82.1599 58.5314 82.1675 57.6165 82.175C56.9736 82.1813 56.3308 82.1878 55.6879 82.1943C54.3343 82.2078 52.9807 82.2203 51.627 82.2321C49.5843 82.2498 47.5416 82.27 45.499 82.2904C42.5981 82.3192 39.6972 82.343 36.7962 82.3634C35.2028 82.3751 33.6095 82.3913 32.0162 82.4152C31.3737 82.4245 30.7313 82.4318 30.0888 82.4382C29.3524 82.4458 28.6161 82.4567 27.8798 82.4719C24.8933 82.4933 24.8933 82.4933 23.5047 81.4658C22.2531 79.9487 22.1033 78.8647 22.1245 76.9833C22.1225 76.7208 22.1206 76.4584 22.1187 76.1881C22.1138 75.3108 22.1177 74.4339 22.1215 73.5566C22.1198 72.9269 22.1177 72.2971 22.115 71.6673C22.1094 69.958 22.1116 68.2488 22.1155 66.5394C22.1186 64.7499 22.1157 62.9604 22.1138 61.1709C22.1115 58.1651 22.1145 55.1593 22.1203 52.1535C22.127 48.6803 22.1248 45.2071 22.1181 41.7338C22.1125 38.7507 22.1117 35.7677 22.1149 32.7846C22.1168 31.0034 22.1171 29.2223 22.1131 27.4411C22.1095 25.7658 22.112 24.0907 22.119 22.4154C22.1207 21.8012 22.1202 21.187 22.1175 20.5729C22.1141 19.733 22.1184 18.8935 22.1245 18.0537C22.1217 17.8119 22.119 17.5701 22.1162 17.321C22.1399 15.6314 22.5348 14.2831 23.5047 12.8811C24.5248 12.2572 25.3997 12.1957 26.5797 12.2148C26.8793 12.2176 27.179 12.2204 27.4878 12.2233C27.8089 12.2284 28.1301 12.2335 28.461 12.2388C29.1495 12.24 29.838 12.2406 30.5266 12.2406C31.6057 12.2431 32.6841 12.2495 33.7631 12.2676C39.2184 12.4273 39.2184 12.4273 43.8722 9.94908C44.1227 9.70416 44.3732 9.45923 44.6313 9.20688C44.9315 8.94012 45.2317 8.67336 45.541 8.39852C46.0923 7.90823 46.6373 7.41072 47.1764 6.90693C49.3238 4.9187 51.4898 3.15478 54.1229 1.85851C56.208 0.81594 59.4505 1.49107 61.5669 2.14556Z" fill="#3E3E3E"/>
<path d="M170.203 29.8947C170.552 29.8931 170.901 29.8915 171.261 29.8899C171.995 29.8879 172.73 29.8883 173.465 29.8909C174.582 29.8935 175.699 29.8847 176.816 29.875C177.533 29.8745 178.25 29.8747 178.967 29.8756C179.298 29.8722 179.628 29.8687 179.969 29.8652C183.044 29.8931 185.445 30.7039 187.694 32.825C189.57 34.8184 190.458 36.5395 190.395 39.2763C190.388 39.4575 190.381 39.6387 190.374 39.8253C188.637 40.9595 187.033 40.8486 185.006 40.8013C184.666 40.7978 184.327 40.7943 183.977 40.7907C182.528 40.7757 181.079 40.7499 179.631 40.725C178.571 40.7084 177.512 40.6973 176.452 40.6864C176.126 40.6788 175.799 40.6712 175.463 40.6633C173.736 40.6463 172.546 40.7079 171.084 41.6624C171.084 41.9655 171.084 42.2686 171.084 42.5809C172.936 42.7132 174.504 42.4511 176.289 41.9686C181.395 40.6182 185.897 42.0878 190.431 44.6668C194.95 47.5253 197.997 51.8355 199.285 57.0325C200.374 62.1784 199.776 68.1394 197.057 72.6908C193.567 77.7693 189.047 80.999 182.949 82.2889C176.845 82.7976 171.244 81.5377 166.422 77.6447C166.243 77.4912 166.064 77.3377 165.879 77.1795C165.436 76.8314 165.436 76.8314 164.983 76.4762C160.822 72.9982 159.433 67.6291 158.837 62.4828C158.695 60.659 158.7 58.8331 158.704 57.005C158.703 56.5014 158.701 55.9978 158.699 55.4943C158.697 54.4497 158.697 53.4051 158.701 52.3605C158.704 51.0341 158.698 49.7079 158.689 48.3815C158.683 47.3454 158.683 46.3094 158.685 45.2733C158.685 44.7846 158.683 44.2959 158.68 43.8072C158.652 39.6953 158.937 35.6807 161.845 32.4734C162.033 32.304 162.222 32.1347 162.416 31.9603C162.692 31.7027 162.692 31.7027 162.974 31.44C165.219 29.9845 167.595 29.8877 170.203 29.8947Z" fill="#EA3338"/>
<path d="M247.63 41.6626C248.161 41.6564 248.693 41.652 249.224 41.6483C249.668 41.6443 249.668 41.6443 250.121 41.6402C252.551 41.7023 254.985 42.379 256.8 44.0487C260.477 48.0347 259.979 53.5207 260.04 58.5999C260.05 59.3852 260.064 60.1704 260.078 60.9557C260.08 61.1911 260.081 61.4266 260.083 61.6692C260.13 64.2904 260.514 66.9085 262.327 68.9128C264.752 70.6871 267.331 71.0665 270.287 70.7499C272.269 70.1568 273.607 69.1639 274.802 67.4907C276.273 64.7279 276.25 62.1789 276.261 59.1246C276.267 58.6201 276.272 58.1156 276.278 57.6111C276.293 56.2903 276.302 54.9696 276.31 53.6488C276.319 52.2982 276.333 50.9476 276.347 49.597C276.373 46.9523 276.394 44.3075 276.411 41.6626C276.952 41.6589 277.493 41.6563 278.034 41.6541C278.336 41.6525 278.637 41.6509 278.948 41.6493C281.581 41.6915 283.918 42.7151 285.903 44.4183C288.968 48.2697 288.458 53.4563 288.469 58.0999C288.483 62.1033 288.528 65.6471 291.454 68.7119C293.551 70.5714 295.611 70.8642 298.335 70.8336C300.357 70.6707 302.057 70.0586 303.47 68.5684C305.188 66.31 305.847 63.6328 305.834 60.8409C305.833 60.4536 305.832 60.0663 305.831 59.6673C305.83 59.462 305.829 59.2566 305.827 59.0451C305.823 58.3989 305.821 57.7527 305.82 57.1065C305.816 55.7348 305.811 54.3631 305.804 52.9914C305.797 51.4012 305.791 49.811 305.787 48.2208C305.785 47.5857 305.781 46.9505 305.778 46.3154C305.777 45.9281 305.775 45.5409 305.774 45.1419C305.773 44.8018 305.771 44.4617 305.77 44.1113C305.802 43.2587 305.916 42.4916 306.111 41.6626C309.286 41.3586 311.591 42.0555 314.123 44.0128C315.667 45.4455 317.036 47.5165 317.176 49.6738C317.178 49.9308 317.18 50.1878 317.182 50.4526C317.185 50.7452 317.188 51.0378 317.191 51.3392C317.193 51.8142 317.193 51.8142 317.195 52.2989C317.197 52.6272 317.199 52.9555 317.201 53.2938C317.203 53.9911 317.205 54.6883 317.207 55.3856C317.21 56.4392 317.219 57.4927 317.229 58.5463C317.263 65.6231 316.204 71.4305 311.22 76.797C309.88 78.0729 308.316 79.0084 306.723 79.9354C306.511 80.0589 306.299 80.1824 306.081 80.3097C303.33 81.7951 300.421 82.2514 297.327 82.2317C296.847 82.2294 296.847 82.2294 296.358 82.2271C291.776 82.1248 287.743 80.5975 284.085 77.8112C283.255 77.1118 283.255 77.1118 282.569 77.2228C281.733 77.5629 281.135 78.0519 280.43 78.6149C275.741 82.1141 270.548 82.5583 264.867 81.959C259.172 80.843 253.835 77.1388 250.484 72.4853C248.302 69.1258 247.588 65.3576 247.595 61.406C247.595 61.0829 247.595 61.0829 247.595 60.7533C247.595 60.0509 247.597 59.3485 247.6 58.6462C247.6 58.1554 247.601 57.6646 247.601 57.1739C247.602 55.8893 247.605 54.6048 247.609 53.3203C247.612 52.0066 247.613 50.693 247.615 49.3794C247.618 46.8071 247.623 44.2349 247.63 41.6626Z" fill="#3E3E3E"/>
<path d="M128.831 30.3336C128.953 30.8839 128.953 30.8839 128.964 31.5555C128.973 31.9324 128.973 31.9324 128.982 32.317C128.984 32.5884 128.986 32.8598 128.988 33.1395C128.993 33.4173 128.999 33.695 129.005 33.9812C129.021 34.8704 129.031 35.7594 129.042 36.6486C129.052 37.2506 129.062 37.8526 129.073 38.4546C129.099 39.9321 129.12 41.4095 129.137 42.8871C129.577 42.8435 130.017 42.7984 130.457 42.7526C130.702 42.7276 130.947 42.7027 131.199 42.677C132.076 42.5555 132.834 42.2799 133.654 41.9494C138.111 40.4109 142.583 41.7237 146.685 43.71C148.78 44.7761 150.477 46.075 152.101 47.786C152.402 48.0992 152.402 48.0992 152.709 48.4187C156.99 53.0932 157.82 58.3111 157.65 64.4399C157.427 69.1692 155.095 73.7136 151.748 77.0096C149.313 79.1946 146.615 80.4409 143.528 81.466C143.201 81.5785 142.874 81.691 142.538 81.8069C137.072 83.0938 131.125 81.8999 126.382 79.0165C121.652 75.7998 118.569 71.4897 117.311 65.899C116.907 63.5765 117.022 61.1702 117.034 58.8217C117.033 58.2097 117.032 57.5978 117.03 56.9858C117.028 55.7112 117.031 54.4368 117.037 53.1622C117.044 51.5342 117.04 49.9065 117.032 48.2785C117.028 47.0179 117.029 45.7574 117.032 44.4968C117.033 43.8966 117.032 43.2964 117.029 42.6962C117.026 41.8568 117.031 41.0177 117.038 40.1783C117.035 39.9344 117.033 39.6905 117.03 39.4392C117.069 36.8474 118.125 34.6537 119.871 32.7604C122.085 30.8782 126.033 28.468 128.831 30.3336Z" fill="#3E3E3E"/>
<path d="M227.28 41.2764C228.358 41.2797 229.435 41.2764 230.513 41.2725C231.208 41.2729 231.904 41.2737 232.599 41.2749C232.916 41.2736 233.233 41.2724 233.559 41.2711C237.159 41.2939 240.828 41.5956 243.66 44.0365C245.946 46.4387 246.546 48.9118 246.508 52.1682C246.405 52.9911 246.405 52.9911 245.793 53.6035C245.013 53.6893 244.259 53.7459 243.477 53.7757C242.072 53.7128 242.072 53.7128 240.894 54.2158C240.929 55.7575 241.082 57.2911 241.525 58.7703C242.824 63.6112 241.1 68.4925 238.745 72.6835C236.024 77.3523 231.696 80.6133 226.503 82.0018C220.326 83.3152 214.8 81.8285 209.517 78.5453C208.919 78.1184 208.373 77.6711 207.826 77.1795C207.601 76.979 207.376 76.7785 207.144 76.5719C203.429 73.0677 201.264 68.5805 201.039 63.4527C201.009 57.2863 202.85 51.754 207.233 47.2502C212.903 41.6589 219.703 41.2489 227.28 41.2764Z" fill="#EA3338"/>
<path d="M108.207 46.2942C112.722 50.1809 115.263 55.023 115.972 60.9514C116.016 61.908 116.022 62.8632 116.023 63.8207C116.024 64.0905 116.025 64.3603 116.026 64.6383C116.028 65.2062 116.028 65.7741 116.028 66.342C116.029 67.2053 116.035 68.0686 116.04 68.9319C116.041 69.4863 116.042 70.0406 116.042 70.595C116.044 70.8502 116.047 71.1054 116.049 71.3684C116.038 74.1824 115.454 76.8978 113.56 79.0592C111.069 81.4617 108.496 82.2152 105.082 82.2107C104.836 82.1669 104.59 82.1231 104.337 82.078C104.135 81.7749 103.932 81.4717 103.724 81.1594C102.6 81.3 101.579 81.4663 100.485 81.779C98.9389 82.1713 97.4281 82.1708 95.8401 82.1545C95.3916 82.1504 95.3916 82.1504 94.9341 82.1462C88.7214 82.0464 84.3224 79.935 79.9569 75.4951C76.0946 71.0507 74.9195 65.7676 75.2494 60.0329C75.6644 55.012 78.23 49.9166 81.9387 46.4796C89.8779 40.0821 100.259 39.8863 108.207 46.2942Z" fill="#3E3E3E"/>
<path d="M406.232 45.9487C410.381 49.411 413.272 54.0738 414.193 59.4207C414.28 60.4914 414.293 61.557 414.296 62.6309C414.299 63.0798 414.299 63.0798 414.302 63.5378C414.305 64.1677 414.306 64.7976 414.306 65.4275C414.308 66.3796 414.319 67.3312 414.33 68.2833C414.356 72.7642 414.255 76.5616 410.941 79.9254C409.127 81.474 407.216 82.1194 404.854 82.1356C404.567 82.1399 404.28 82.1443 403.983 82.1488C403.14 82.0756 402.682 81.8599 401.945 81.4658C400.518 81.3638 399.289 81.4951 397.889 81.772C392.315 82.7469 387.153 82.1466 382.35 79.0164C377.632 75.6447 375.299 71.6644 373.777 66.1567C373.717 65.9649 373.658 65.7731 373.596 65.5755C372.551 60.2189 374.221 54.4233 377.145 49.9291C380.147 45.8817 384.328 42.9059 389.288 41.8045C395.355 40.9602 401.214 42.3988 406.232 45.9487Z" fill="#3E3E3E"/>
<path d="M350.813 45.6512C355.291 49.0845 358.176 54.0688 358.998 59.6231C359.254 61.866 359.226 64.1322 359.216 66.3865C359.214 67.3069 359.223 68.2267 359.232 69.1471C359.247 73.0551 359.144 76.4321 356.303 79.4078C354.289 81.2017 352.245 82.1644 349.531 82.173C349.154 82.1781 348.777 82.1832 348.389 82.1885C348.077 82.1518 347.766 82.1151 347.445 82.0773C347.243 81.7742 347.041 81.4711 346.833 81.1588C346.137 81.2534 345.442 81.3493 344.747 81.4458C344.36 81.4991 343.972 81.5524 343.573 81.6073C342.551 81.7417 342.551 81.7417 341.628 82.0773C335.488 82.4389 329.658 81.4772 324.902 77.3123C324.449 76.866 324.002 76.4138 323.563 75.9537C323.392 75.7887 323.221 75.6237 323.045 75.4537C319.645 71.9206 318.139 66.3445 318.214 61.5417C318.465 56.1821 320.985 50.6445 324.788 46.8664C332.513 40.186 342.43 39.9756 350.813 45.6512Z" fill="#3E3E3E"/>
<path d="M362.888 29.8746C365.865 29.9264 367.859 31.0341 369.93 33.1278C372.187 35.9635 372.426 39.1535 372.395 42.6601C372.395 43.0845 372.396 43.5089 372.398 43.9333C372.401 45.0737 372.396 46.214 372.39 47.3545C372.385 48.5517 372.386 49.749 372.386 50.9463C372.385 52.9529 372.38 54.9596 372.372 56.9662C372.362 59.2861 372.359 61.6058 372.359 63.9257C372.36 66.4004 372.356 68.8751 372.35 71.3498C372.349 72.062 372.348 72.7741 372.348 73.4862C372.347 74.6028 372.344 75.7194 372.337 76.836C372.335 77.4417 372.335 78.0473 372.336 78.653C372.333 79.0122 372.33 79.3714 372.328 79.7415C372.327 80.0542 372.326 80.367 372.325 80.6892C372.246 81.4662 372.246 81.4662 371.633 82.3848C370.786 82.4664 370.009 82.4913 369.162 82.4745C368.919 82.4732 368.675 82.4719 368.424 82.4705C367.644 82.4654 366.864 82.4538 366.084 82.4422C365.556 82.4376 365.027 82.4334 364.499 82.4296C363.203 82.4195 361.907 82.4036 360.611 82.3848C360.306 70.8979 360.262 59.4104 360.249 47.9201C360.247 46.73 360.244 45.54 360.241 44.3499C360.236 42.4532 360.234 40.5565 360.235 38.6598C360.234 37.9479 360.233 37.2359 360.231 36.5239C360.228 35.5428 360.228 34.5617 360.23 33.5805C360.229 33.2895 360.227 32.9984 360.225 32.6985C360.226 32.4344 360.228 32.1702 360.229 31.8981C360.229 31.6684 360.229 31.4388 360.228 31.2022C360.429 29.7253 361.684 29.9062 362.888 29.8746Z" fill="#3E3E3E"/>
<path d="M63.807 4.66014C64.644 4.95937 65.487 5.23638 66.3318 5.51291C66.9634 5.72306 67.5949 5.93356 68.2263 6.14441C68.5251 6.24229 68.8239 6.34017 69.1318 6.44102C71.9847 7.41836 74.4497 8.87349 75.8617 11.6557C76.0766 12.7831 76.0253 13.8393 75.9212 14.9791C75.852 15.7437 75.801 16.5087 75.7493 17.2746C75.5447 20.094 75.2677 22.8954 74.7901 25.6826C74.7538 25.8984 74.7176 26.1142 74.6803 26.3366C74.4084 27.8057 74.4084 27.8057 73.7184 28.4957C73.6142 28.2518 73.51 28.0078 73.4027 27.7565C72.4039 25.573 71.5228 24.1871 69.4319 22.9844C69.0151 22.7192 69.0151 22.7192 68.5899 22.4486C67.6148 22.0736 66.8272 21.9603 65.796 21.8362C64.1248 21.582 63.3204 21.1341 62.135 19.9609C57.1459 15.0707 51.431 13.2644 44.6312 12.5742C45.2745 9.56802 49.1315 7.37006 51.4942 5.59902C51.9063 5.28219 52.3025 4.94499 52.6948 4.60393C55.8796 2.01697 60.335 3.39239 63.807 4.66014Z" fill="#F5F5F5"/>
<path d="M48.4202 26.5631C48.9424 26.5498 48.9424 26.5498 49.4751 26.5362C51.9986 26.5169 51.9986 26.5169 53.2785 27.1491C53.9809 28.1075 54.0199 28.7506 54.0463 29.9311C53.9706 31.1473 53.9706 31.1473 54.4291 32.17C54.7764 32.2079 55.1237 32.2458 55.4816 32.2849C55.8415 32.348 56.2015 32.4112 56.5723 32.4762C57.7983 34.3151 57.5674 36.4593 57.5866 38.5999C57.5954 38.9306 57.6043 39.2614 57.6135 39.6021C57.633 42.0349 57.633 42.0349 56.9108 43.25C55.9345 44.0904 55.3965 44.1503 54.1324 44.1556C53.8157 44.1576 53.499 44.1595 53.1726 44.1615C52.8295 44.1619 52.4863 44.1622 52.1327 44.1626C51.6061 44.1641 51.6061 44.1641 51.0688 44.1657C50.3255 44.1672 49.5822 44.1679 48.8388 44.1679C47.6978 44.1685 46.5569 44.1741 45.4158 44.1799C44.695 44.1808 43.9742 44.1814 43.2534 44.1817C42.7386 44.185 42.7386 44.185 42.2135 44.1884C41.8967 44.1874 41.58 44.1865 41.2537 44.1855C40.974 44.1859 40.6944 44.1864 40.4063 44.1868C39.7323 44.1111 39.7323 44.1111 39.12 43.4988C39.0626 42.7156 39.0417 41.9663 39.0494 41.1833C39.0495 40.9545 39.0497 40.7258 39.0498 40.4901C39.0507 40.0062 39.0532 39.5224 39.0569 39.0385C39.0625 38.2966 39.0632 37.5549 39.0632 36.813C39.0647 36.3434 39.0664 35.8737 39.0685 35.4041C39.0689 35.1815 39.0692 34.9588 39.0696 34.7295C39.0844 33.1597 39.0844 33.1597 39.4261 32.4762C40.1258 32.3494 40.1258 32.3494 40.9762 32.2849C41.2576 32.262 41.539 32.2391 41.829 32.2155C42.1552 32.193 42.1552 32.193 42.488 32.17C42.4738 31.8713 42.4595 31.5725 42.4449 31.2647C42.4339 30.8751 42.4228 30.4855 42.4114 30.0842C42.3972 29.697 42.383 29.3098 42.3684 28.9109C42.488 27.8835 42.488 27.8835 43.0477 27.3058C44.7732 26.4213 46.5236 26.5791 48.4202 26.5631Z" fill="#F4F4F4"/>
<path d="M137.806 53.45C138.034 53.4517 138.263 53.4535 138.498 53.4553C140.739 53.5276 142.417 54.1137 144.088 55.6483C146.193 57.9479 146.711 60.3366 146.673 63.3818C146.451 65.8768 145.059 67.8804 143.222 69.5245C140.818 71.1057 138.022 71.4412 135.207 70.9358C133.155 70.2942 131.33 68.7964 130.233 66.9579C129.081 64.4289 128.562 61.7384 129.472 59.0402C130.672 56.4806 132.032 54.878 134.663 53.7921C135.705 53.4625 136.72 53.4403 137.806 53.45Z" fill="#F5F5F5"/>
<path d="M183.937 54.4451C186.04 55.744 187.658 57.3729 188.537 59.7267C188.909 62.1975 188.811 64.5235 187.516 66.7031C185.636 69.2006 183.325 70.671 180.221 71.1595C177.996 71.2701 175.782 70.4362 174.034 69.0904C172.319 67.4286 171.219 65.3617 170.981 62.9823C170.953 60.3997 171.075 58.6597 172.817 56.7079C175.866 53.7786 180.015 52.4062 183.937 54.4451Z" fill="#F6F5F5"/>
<path d="M342.374 54.2158C344.324 55.3543 346.009 57.0686 346.697 59.2606C347.18 62.022 347.253 64.9035 345.773 67.3672C344.302 69.3239 342.47 70.4497 340.097 71.0558C337.533 71.4181 335.484 71.031 333.361 69.5249C331.423 67.7632 330.431 65.6932 330.226 63.0903C330.157 60.0882 330.722 57.842 332.808 55.6163C335.494 53.2734 339.099 52.7505 342.374 54.2158Z" fill="#F4F4F4"/>
<path d="M397.161 54.2343C399.622 55.6563 401.316 57.5859 402.124 60.3328C402.607 62.6684 402.185 64.6984 401.027 66.7686C399.597 68.7477 398.069 70.2327 395.707 70.9786C395.442 71.0039 395.177 71.0291 394.903 71.0551C394.706 71.0745 394.508 71.0938 394.304 71.1138C391.925 71.2429 390.052 70.4503 388.072 69.1798C385.908 66.8651 385.262 64.2026 385.286 61.1138C385.533 58.9899 386.522 56.8876 388.129 55.4399C388.445 55.2378 388.761 55.0357 389.086 54.8275C389.258 54.7087 389.429 54.5899 389.606 54.4675C391.903 53.0664 394.754 53.1259 397.161 54.2343Z" fill="#F5F5F5"/>
<path d="M98.1365 53.9474C100.71 55.4319 102.753 57.1189 103.724 60.0328C104.009 62.859 103.675 65.2354 102.193 67.6873C100.627 69.5742 98.536 70.8333 96.1044 71.1821C93.5887 71.3045 91.6113 70.7047 89.6973 69.0424C89.2059 68.5153 88.8091 67.9842 88.4152 67.3811C88.2258 67.1005 88.2258 67.1005 88.0325 66.8142C86.8107 64.6168 86.7972 61.8584 87.1905 59.4204C88.084 56.9072 89.9005 55.2688 92.1468 53.9474C94.1644 53.3521 96.1202 53.3425 98.1365 53.9474Z" fill="#F5F5F5"/>
<path d="M226.809 55.1341C228.487 56.4272 229.674 57.956 230.177 60.033C230.408 62.2419 230.588 64.5973 229.378 66.5525C227.451 68.9189 225.125 70.1865 222.08 70.5269C219.491 70.625 217.64 70.0225 215.696 68.2832C213.935 66.4262 213.019 64.7607 212.916 62.1954C213 59.9264 213.61 57.9346 215.171 56.2476C218.709 53.369 222.944 52.5682 226.809 55.1341Z" fill="#F6F4F4"/>
<path d="M41.679 44.6145C42.0141 44.6136 42.3492 44.6126 42.6945 44.6117C43.0562 44.6155 43.4178 44.6193 43.7905 44.6231C44.1615 44.6237 44.5326 44.6243 44.9148 44.6249C45.6996 44.6269 46.4843 44.6312 47.2691 44.6375C48.4739 44.647 49.6786 44.65 50.8835 44.6519C51.6448 44.6547 52.4061 44.6578 53.1673 44.6614C53.7108 44.6634 53.7108 44.6634 54.2652 44.6654C54.5994 44.6683 54.9335 44.6712 55.2778 44.6743C55.7203 44.6774 55.7203 44.6774 56.1718 44.6806C56.8786 44.7236 56.8786 44.7236 57.4909 45.0298C57.5289 46.3591 57.5566 47.6881 57.575 49.0178C57.5827 49.4698 57.5932 49.9219 57.6064 50.3738C57.6251 51.0245 57.6337 51.6746 57.6404 52.3255C57.6485 52.7168 57.6565 53.108 57.6647 53.5111C57.4909 54.5214 57.4909 54.5214 56.7952 55.2594C55.9992 55.7233 55.5961 55.905 54.6946 55.9327C54.4518 55.9427 54.2089 55.9526 53.9586 55.9629C53.5663 55.9693 53.5663 55.9693 53.1661 55.9758C52.8908 55.9842 52.6154 55.9926 52.3317 56.0013C51.3979 56.0262 50.4643 56.0401 49.5302 56.0523C49.1756 56.0586 48.821 56.0649 48.4556 56.0713C47.3467 56.0894 46.2379 56.101 45.1288 56.1098C44.6025 56.1158 44.6025 56.1158 44.0654 56.122C43.5652 56.1225 43.5652 56.1225 43.0549 56.1229C42.7608 56.1242 42.4666 56.1254 42.1635 56.1267C41.0937 56.0383 40.1417 55.7613 39.12 55.44C39.0973 54.0615 39.0807 52.683 39.0696 51.3044C39.065 50.8354 39.0587 50.3665 39.0507 49.8975C39.0396 49.2234 39.0344 48.5494 39.0303 47.8751C39.0256 47.6656 39.0208 47.456 39.016 47.2401C39.0154 45.7905 39.0154 45.7905 39.4833 45.127C40.2419 44.5759 40.7458 44.611 41.679 44.6145Z" fill="#F3F3F3"/>
<path d="M57.4908 56.3579C57.5212 57.638 57.5434 58.9179 57.5581 60.1983C57.5642 60.6334 57.5726 61.0684 57.5832 61.5034C57.5981 62.1305 57.605 62.7573 57.6104 63.3845C57.6168 63.7613 57.6232 64.1382 57.6298 64.5264C57.4654 65.7291 57.111 66.2208 56.2661 67.0743C55.4855 67.4646 54.9402 67.4172 54.0664 67.4152C53.7355 67.4152 53.4045 67.4152 53.0635 67.4151C52.5257 67.4128 52.5257 67.4128 51.9771 67.4104C51.611 67.4099 51.2449 67.4095 50.8677 67.409C49.6946 67.4073 48.5216 67.4035 47.3485 67.3996C46.5548 67.3981 45.761 67.3967 44.9672 67.3954C43.0181 67.392 41.069 67.3869 39.1199 67.3805C39.1123 65.9035 39.1068 64.4265 39.1031 62.9496C39.1015 62.4467 39.0994 61.9439 39.0968 61.4411C39.0931 60.7199 39.0913 59.9986 39.09 59.2774C39.0884 59.0513 39.0868 58.8251 39.0852 58.5922C39.0851 58.0514 39.1009 57.5107 39.1199 56.9703C39.6306 56.4595 40.2521 56.6128 40.9543 56.6012C41.2803 56.5951 41.6064 56.589 41.9423 56.5827C42.4753 56.575 42.4753 56.575 43.0189 56.5672C43.3819 56.5609 43.7448 56.5545 44.1187 56.5479C45.2846 56.5278 46.4505 56.5098 47.6164 56.4919C48.3986 56.4786 49.1808 56.4653 49.963 56.4518C51.3997 56.4275 52.8365 56.4036 54.2732 56.3812C54.5626 56.3766 54.852 56.3721 55.1502 56.3675C55.9305 56.3583 56.7105 56.3562 57.4908 56.3579Z" fill="#F1F1F1"/>
<path d="M18.6057 30.0268C19.6677 30.6545 20.3504 31.2807 20.749 32.4763C20.7743 33.0862 20.7818 33.6969 20.7789 34.3074C20.7781 34.6283 20.7773 34.9493 20.7765 35.28C20.7737 35.6872 20.771 36.0945 20.7681 36.514C20.7618 37.8086 20.7555 39.1032 20.749 40.437C16.5053 40.437 12.2616 40.437 7.88931 40.437C7.87037 39.2561 7.85142 38.0752 7.8319 36.8585C7.82354 36.4888 7.81518 36.1191 7.80656 35.7382C7.80427 35.4436 7.80197 35.1491 7.79961 34.8456C7.7948 34.5458 7.78999 34.2459 7.78503 33.937C7.94916 32.6017 8.58295 31.8019 9.47763 30.8305C10.5224 30.2269 11.057 30.2567 12.2153 30.467C12.9518 30.6884 13.4598 31.0276 14.0129 31.5577C14.2529 31.3114 14.4929 31.0652 14.7401 30.8114C16.0005 29.581 16.9388 29.5691 18.6057 30.0268Z" fill="#424242"/>
<path d="M7.8894 42.8867C12.1331 42.8867 16.3768 42.8867 20.749 42.8867C20.749 43.695 20.749 44.5033 20.749 45.3361C18.122 45.4372 15.495 45.5382 12.7883 45.6423C15.1789 46.2339 15.1789 46.2339 17.5699 46.8239C17.8667 46.8977 18.1636 46.9716 18.4694 47.0476C18.9264 47.1607 18.9264 47.1607 19.3926 47.276C20.1367 47.4794 20.1367 47.4794 20.749 47.7856C20.749 48.6949 20.749 49.6043 20.749 50.5412C18.3241 51.1474 15.8991 51.7537 13.4007 52.3783C15.8256 52.4793 18.2506 52.5804 20.749 52.6845C20.749 53.4928 20.749 54.3011 20.749 55.1339C16.6064 55.1339 12.4638 55.1339 8.19559 55.1339C8.19559 53.8204 8.19559 52.5069 8.19559 51.1536C8.62343 51.0502 9.05127 50.9468 9.49207 50.8402C10.055 50.7023 10.6179 50.5644 11.1809 50.4264C11.4627 50.3585 11.7445 50.2906 12.0348 50.2207C12.3072 50.1536 12.5795 50.0865 12.8601 50.0173C13.1102 49.9564 13.3603 49.8955 13.6181 49.8327C14.3112 49.6251 14.9085 49.3535 15.5439 49.0103C15.0999 48.8937 15.0999 48.8937 14.6469 48.7747C12.3816 48.1768 10.1291 47.5562 7.8894 46.867C7.8894 45.5535 7.8894 44.24 7.8894 42.8867Z" fill="#454545"/>
<path d="M7.8894 70.4431C12.1331 70.4431 16.3768 70.4431 20.749 70.4431C20.749 71.2514 20.749 72.0597 20.749 72.8925C17.9199 72.9935 15.0908 73.0946 12.1759 73.1987C13.2748 73.4734 13.2748 73.4734 14.3958 73.7536C14.6358 73.8137 14.8759 73.8737 15.1232 73.9355C15.3268 73.9864 15.5304 74.0373 15.7401 74.0897C16.5662 74.2962 17.3922 74.5028 18.2183 74.7093C18.5482 74.7918 18.8782 74.8742 19.2181 74.9592C19.7284 75.0868 20.2387 75.2144 20.749 75.342C20.749 76.2513 20.749 77.1607 20.749 78.0976C19.5629 78.3986 18.3763 78.698 17.1897 78.997C16.687 79.1246 16.687 79.1246 16.1743 79.2548C15.8486 79.3366 15.523 79.4185 15.1875 79.5029C14.8893 79.5783 14.5911 79.6536 14.2838 79.7313C13.3848 79.9383 12.4735 80.0892 11.5636 80.2409C16.1104 80.3924 16.1104 80.3924 20.749 80.5471C20.749 81.2543 20.749 81.9616 20.749 82.6903C16.6064 82.6903 12.4638 82.6903 8.19559 82.6903C8.19559 81.3768 8.19559 80.0633 8.19559 78.71C10.6205 78.1037 13.0455 77.4975 15.5439 76.8729C14.8302 76.1591 14.4577 76.0949 13.4868 75.8766C13.2014 75.8109 12.9161 75.7452 12.6221 75.6774C12.3233 75.6109 12.0245 75.5444 11.7167 75.4759C11.1265 75.3422 10.5364 75.2079 9.94656 75.0729C9.68429 75.0142 9.42202 74.9556 9.15181 74.8952C8.50177 74.7296 8.50177 74.7296 7.8894 74.4234C7.8894 73.1099 7.8894 71.7964 7.8894 70.4431Z" fill="#434343"/>
<path d="M20.7491 16.2485C20.7491 17.1579 20.7491 18.0673 20.7491 19.0042C19.8397 19.3073 18.9303 19.6104 17.9934 19.9227C17.9934 21.7414 17.9934 23.5602 17.9934 25.434C19.3575 25.7371 19.3575 25.7371 20.7491 26.0464C20.7491 26.9557 20.7491 27.8651 20.7491 28.802C18.2457 28.1021 15.8364 27.2056 13.4178 26.2612C12.7615 26.0051 12.1043 25.7511 11.447 25.4974C8.23801 24.2517 8.23801 24.2517 7.88943 23.9031C7.86744 23.4379 7.86373 22.9718 7.87029 22.5061C7.87305 22.2531 7.87582 22.0001 7.87866 21.7395C7.88221 21.5441 7.88577 21.3487 7.88943 21.1474C9.62188 20.4484 11.3549 19.7508 13.0884 19.0544C13.6784 18.8172 14.2682 18.5796 14.8579 18.3416C15.7041 18.0001 16.5509 17.66 17.3978 17.3202C17.6625 17.213 17.9273 17.1059 18.2 16.9955C18.4452 16.8974 18.6903 16.7993 18.9429 16.6982C19.1591 16.6112 19.3753 16.5242 19.5981 16.4345C20.1367 16.2485 20.1367 16.2485 20.7491 16.2485Z" fill="#454545"/>
<path d="M8.19556 57.8896C9.51366 57.8668 10.8317 57.8502 12.1499 57.8392C12.5977 57.8346 13.0456 57.8283 13.4933 57.8203C14.1394 57.8091 14.7853 57.804 15.4315 57.7999C15.8195 57.7951 16.2075 57.7903 16.6073 57.7853C18.1757 57.9368 19.1659 58.4207 20.2323 59.5736C21.1983 61.0047 21.2038 62.3429 21.0552 64.0133C20.7552 65.3595 20.3656 66.2395 19.3712 67.209C18.057 68.0304 17.0446 68.0297 15.5212 68.0235C15.2071 68.0229 15.2071 68.0229 14.8867 68.0222C14.2191 68.0205 13.5516 68.0167 12.884 68.0128C12.4309 68.0112 11.9778 68.0098 11.5247 68.0086C10.415 68.0052 9.30526 67.9999 8.19556 67.9936C8.19556 67.1853 8.19556 66.377 8.19556 65.5442C8.45812 65.5397 8.72069 65.5352 8.99121 65.5306C9.96823 65.5119 10.945 65.4892 11.9219 65.4638C12.3442 65.4536 12.7665 65.4451 13.1888 65.4381C13.7969 65.4278 14.4049 65.4113 15.0129 65.3947C15.5613 65.3826 15.5613 65.3826 16.1207 65.3704C17.141 65.2288 17.5839 65.0499 18.2996 64.3194C18.4476 63.4809 18.4476 63.4809 18.3761 62.578C18.3595 62.1216 18.3595 62.1216 18.3426 61.6559C18.3284 61.4234 18.3142 61.191 18.2996 60.9514C17.2497 60.6015 16.3887 60.5811 15.282 60.5484C15.0794 60.542 14.8768 60.5357 14.6681 60.5291C14.0224 60.5091 13.3766 60.491 12.7309 60.473C12.2925 60.4598 11.8542 60.4464 11.4158 60.433C10.3425 60.4002 9.26902 60.3692 8.19556 60.3391C8.19556 59.5308 8.19556 58.7224 8.19556 57.8896Z" fill="#404040"/>
<path d="M412.662 87.896C413.552 88.5753 413.838 88.9736 414.193 90.0393C414.473 92.2442 413.953 94.1893 412.968 96.1629C412.117 97.1293 411.6 97.3411 410.366 97.6939C409.294 97.6939 409.294 97.6939 408.414 97.158C407.275 95.9524 407.336 94.6822 407.35 93.0987C407.57 91.2079 408.454 89.711 409.715 88.317C410.785 87.7566 411.471 87.7228 412.662 87.896Z" fill="#434343"/>
<path d="M397.659 87.8956C398.577 88.3931 398.577 88.3931 399.19 89.1203C399.362 90.0197 399.362 90.0197 399.19 90.9574C398.577 91.8376 398.577 91.8376 397.965 92.4883C398.123 92.6462 398.281 92.804 398.443 92.9667C398.884 93.713 398.884 93.713 398.884 94.7655C398.509 96.0995 398.177 96.5861 397.047 97.3872C396.109 97.6776 395.269 97.7891 394.291 97.6934C393.396 97.1529 392.919 96.7875 392.454 95.8563C392.272 94.555 392.472 93.8739 393.219 92.8327C393.47 92.5106 393.724 92.1905 393.985 91.8759C393.884 91.7749 393.783 91.6738 393.679 91.5697C393.464 89.3885 393.464 89.3885 394.291 88.3548C395.468 87.7661 396.367 87.6404 397.659 87.8956Z" fill="#464646"/>
<path d="M404.392 87.7669C405.258 87.9487 405.776 88.3712 406.28 89.0897C406.991 90.8615 406.76 92.9827 406.175 94.766C405.512 96.0687 404.941 97.0938 403.499 97.591C402.318 97.8179 401.791 97.7795 400.721 97.1772C400.108 96.4692 400.108 96.4692 400.108 95.2444C400.715 95.2444 401.321 95.2444 401.945 95.2444C401.945 95.5476 401.945 95.8507 401.945 96.163C403.113 95.8054 403.113 95.8054 403.878 94.9C403.982 94.6158 403.982 94.6158 404.089 94.3259C403.596 94.3543 403.596 94.3543 403.094 94.3833C401.907 94.3239 401.527 94.2451 400.721 93.4073C400.351 92.2992 400.316 91.5114 400.414 90.3455C401.396 88.5523 402.258 87.6881 404.392 87.7669Z" fill="#444444"/>
<path d="M352.134 87.991C352.956 88.5077 352.956 88.5077 353.569 89.4262C353.569 89.8304 353.569 90.2346 353.569 90.651C352.688 90.7084 352.688 90.7084 351.732 90.651C351.53 90.3479 351.328 90.0447 351.119 89.7324C350.022 89.6558 350.022 89.6558 348.976 89.7324C348.976 90.1366 348.976 90.5407 348.976 90.9572C349.212 91.0827 349.448 91.2082 349.691 91.3375C349.998 91.5025 350.305 91.6674 350.622 91.8374C350.927 92.0008 351.233 92.1642 351.547 92.3326C352.344 92.7942 352.344 92.7942 352.956 93.4066C353.092 94.4115 353.166 95.1864 352.645 96.0881C351.822 97.1155 351.201 97.6125 349.879 97.7661C348.625 97.8073 347.846 97.7355 346.68 97.2147C345.714 96.2735 345.659 95.648 345.608 94.3252C346.214 94.3252 346.821 94.3252 347.445 94.3252C347.546 94.8304 347.647 95.3356 347.751 95.8561C348.661 95.755 349.57 95.654 350.507 95.5499C350.608 95.1457 350.709 94.7416 350.813 94.3252C350.581 94.2067 350.348 94.0883 350.109 93.9663C349.804 93.8069 349.5 93.6474 349.187 93.4832C348.885 93.3269 348.583 93.1706 348.272 93.0095C347.445 92.4881 347.005 92.1088 346.527 91.2633C346.548 90.0418 346.644 89.3591 347.407 88.3929C348.865 87.2779 350.476 87.3343 352.134 87.991Z" fill="#474747"/>
<path d="M43.7127 28.1902C44.0158 28.2912 44.3189 28.3923 44.6312 28.4964C45.1561 28.525 45.682 28.5364 46.2076 28.537C46.6694 28.5376 46.6694 28.5376 47.1405 28.5382C47.4618 28.537 47.783 28.5359 48.114 28.5346C48.4329 28.5358 48.7519 28.537 49.0804 28.5382C49.5434 28.5376 49.5434 28.5376 50.0157 28.537C50.2969 28.5367 50.578 28.5363 50.8677 28.536C51.8015 28.51 51.8015 28.51 53.2043 28.1902C53.2043 29.6047 53.2043 31.0193 53.2043 32.4767C51.9126 32.5049 50.622 32.5292 49.3303 32.544C48.891 32.5502 48.4518 32.5585 48.0126 32.5691C47.381 32.584 46.7497 32.5909 46.1179 32.5963C45.7379 32.6027 45.3579 32.6092 44.9663 32.6158C44.0189 32.4767 44.0189 32.4767 43.4305 31.9014C43.0281 31.11 43.0444 30.6878 43.1769 29.8168C43.21 29.5756 43.2432 29.3345 43.2773 29.086C43.4065 28.4964 43.4065 28.4964 43.7127 28.1902Z" fill="#474747"/>
<path d="M7.8894 12.268C12.1331 12.268 16.3768 12.268 20.749 12.268C20.749 13.1774 20.749 14.0867 20.749 15.0236C16.5054 15.0236 12.2617 15.0236 7.8894 15.0236C7.8894 14.1143 7.8894 13.2049 7.8894 12.268Z" fill="#4C4C4C"/>
<path d="M378.369 90.3449C379.244 90.7337 379.742 91.0441 380.302 91.8184C380.574 92.6819 380.573 93.4258 380.513 94.3252C380.207 94.6314 380.207 94.6314 379.172 94.6613C378.745 94.6593 378.318 94.6556 377.891 94.6506C377.673 94.6492 377.456 94.6478 377.231 94.6464C376.692 94.6427 376.153 94.6373 375.614 94.6314C375.816 95.0356 376.018 95.4397 376.226 95.8561C376.736 95.8692 377.247 95.8686 377.757 95.8561C377.858 95.7551 377.959 95.6541 378.063 95.55C378.676 95.5375 379.288 95.5369 379.9 95.55C379.454 96.7256 378.895 97.1758 377.757 97.6932C376.341 97.8702 375.516 97.6511 374.389 96.7747C373.667 95.8457 373.666 94.856 373.7 93.6997C373.861 92.4393 374.525 91.7443 375.384 90.8616C376.473 90.1937 377.111 90.1876 378.369 90.3449Z" fill="#484848"/>
<path d="M363.003 90.2687C363.979 90.3452 363.979 90.3452 364.706 90.6705C365.286 91.3624 365.356 91.8048 365.308 92.6978C365.075 94.2829 364.677 95.8355 364.285 97.3874C363.679 97.3874 363.073 97.3874 362.448 97.3874C362.655 95.5251 362.98 93.7092 363.366 91.8761C362.303 92.004 362.303 92.004 361.223 92.4885C360.852 93.3276 360.658 93.9252 360.496 94.804C360.006 97.0742 360.006 97.0742 359.692 97.3874C359.08 97.3999 358.467 97.4004 357.855 97.3874C358.263 95.1421 358.672 92.8967 359.08 90.6514C359.998 90.6514 360.917 90.6514 361.836 90.6514C362.142 90.3452 362.142 90.3452 363.003 90.2687Z" fill="#464646"/>
<path d="M371.939 90.6514C372.724 91.3977 372.724 91.3977 373.164 92.1823C373.164 92.3844 373.164 92.5865 373.164 92.7947C372.558 92.7947 371.952 92.7947 371.327 92.7947C371.226 92.5926 371.125 92.3905 371.021 92.1823C370.415 92.1823 369.808 92.1823 369.184 92.1823C368.572 93.4439 368.517 94.464 368.571 95.8565C369.775 95.6806 369.775 95.6806 370.715 94.9379C371.671 94.8997 371.671 94.8997 372.552 94.9379C372.187 95.9749 371.88 96.6901 371.021 97.3874C370.371 97.5656 370.371 97.5656 369.662 97.6362C369.429 97.6634 369.196 97.6906 368.955 97.7187C368.147 97.6893 367.716 97.5214 367.04 97.0812C366.129 95.7143 366.202 94.3968 366.428 92.7947C367.575 90.4737 369.604 89.9743 371.939 90.6514Z" fill="#464646"/>
<path d="M389.698 87.8954C390.102 87.8954 390.506 87.8954 390.923 87.8954C390.729 90.0459 390.328 92.0915 389.832 94.1912C389.76 94.5001 389.689 94.8089 389.615 95.1271C389.44 95.8808 389.264 96.634 389.086 97.387C388.48 97.387 387.873 97.387 387.249 97.387C387.389 95.1498 387.825 93.1012 388.473 90.9572C388.047 91.1845 388.047 91.1845 387.612 91.4165C386.636 91.8757 386.636 91.8757 385.718 91.8757C385.766 91.1821 385.766 91.1821 386.024 90.3448C386.78 89.7373 386.78 89.7373 387.708 89.1967C388.014 89.0151 388.321 88.8335 388.636 88.6465C388.886 88.4997 389.135 88.3528 389.392 88.2016C389.493 88.1005 389.594 87.9995 389.698 87.8954Z" fill="#454545"/>
<path d="M17.6871 32.4757C18.1907 32.7951 18.1907 32.7951 18.6057 33.3943C18.6722 34.2057 18.6925 34.9407 18.6631 35.7481C18.6589 35.963 18.6548 36.1779 18.6505 36.3993C18.6397 36.9286 18.6232 37.4579 18.6057 37.987C17.4942 37.987 16.3828 37.987 15.2377 37.987C15.2129 37.2405 15.1947 36.4948 15.1803 35.7481C15.1726 35.5367 15.1649 35.3254 15.1569 35.1076C15.1343 33.5436 15.1343 33.5436 15.6527 32.7951C16.3769 32.3358 16.8473 32.3498 17.6871 32.4757Z" fill="#EEEEEE"/>
<path d="M67.901 7.37024C69.3444 7.51702 70.5543 7.66673 71.8814 8.28878C71.7329 9.75689 71.0243 10.7057 70.1591 11.8481C68.9506 13.4825 67.8372 15.1431 66.7911 16.8882C66.5827 17.1783 66.5827 17.1783 66.3701 17.4742C66.168 17.4742 65.966 17.4742 65.7578 17.4742C65.7578 17.0701 65.7578 16.6659 65.7578 16.2495C65.9598 16.2495 66.1619 16.2495 66.3701 16.2495C66.395 16.0439 66.4198 15.8382 66.4455 15.6264C66.7996 14.2338 67.5467 13.0778 68.27 11.8452C68.967 10.6036 69.2684 9.75383 69.1258 8.28878C68.7216 8.18774 68.3174 8.0867 67.901 7.9826C67.901 7.78052 67.901 7.57844 67.901 7.37024Z" fill="#4B4B4B"/>
<path d="M410.825 89.4265C411.338 89.5141 411.848 89.6157 412.355 89.7327C412.437 92.0034 412.325 94.3158 410.825 96.1625C410.42 96.1625 410.016 96.1625 409.6 96.1625C408.943 94.8487 409.134 93.3106 409.557 91.9429C410.377 89.8738 410.377 89.8738 410.825 89.4265Z" fill="#EDEDED"/>
<path d="M11.7358 32.8399C12.4821 33.0886 12.4821 33.0886 13.0945 33.701C13.1543 34.6985 13.1543 34.6985 13.1328 35.8825C13.1273 36.2749 13.1217 36.6672 13.116 37.0714C13.1089 37.3737 13.1018 37.676 13.0945 37.9875C12.0841 37.9875 11.0737 37.9875 10.0327 37.9875C10.0079 37.2924 9.99008 36.5971 9.97529 35.9017C9.96463 35.5145 9.95397 35.1273 9.94299 34.7284C10.0327 33.701 10.0327 33.701 10.4465 33.1006C10.9512 32.7825 10.9512 32.7825 11.7358 32.8399Z" fill="#E5E5E5"/>
<path d="M355.406 90.6512C356.012 90.6512 356.618 90.6512 357.243 90.6512C357.048 92.9555 356.57 95.1432 356.018 97.3872C355.412 97.3872 354.806 97.3872 354.181 97.3872C354.545 95.132 354.941 92.888 355.406 90.6512Z" fill="#444444"/>
<path d="M15.5439 21.1484C15.5439 22.1588 15.5439 23.1692 15.5439 24.2103C15.0016 24.0639 14.4594 23.9171 13.9173 23.7701C13.6153 23.6884 13.3134 23.6067 13.0023 23.5225C12.4162 23.3588 11.8347 23.178 11.2573 22.9855C11.2573 22.7834 11.2573 22.5814 11.2573 22.3732C11.7988 22.1672 12.3412 21.9635 12.8839 21.7608C13.1859 21.6471 13.4878 21.5335 13.7989 21.4163C14.6253 21.1484 14.6253 21.1484 15.5439 21.1484Z" fill="#EAEAEA"/>
<path d="M403.17 89.4265C403.675 89.5276 404.181 89.6286 404.701 89.7327C404.812 91.6592 404.812 91.6592 404.318 92.6223C403.782 93.1007 403.782 93.1007 402.558 93.1007C402.128 92.2406 402.175 91.604 402.252 90.6512C402.711 89.9241 402.711 89.9241 403.17 89.4265Z" fill="#F0F0F0"/>
<path d="M395.209 93.1006C395.715 93.2017 396.22 93.3027 396.74 93.4068C396.951 94.0957 396.951 94.0957 397.046 94.9377C396.606 95.6458 396.606 95.6458 396.128 96.1625C395.623 96.0614 395.117 95.9604 394.597 95.8563C394.386 95.1674 394.386 95.1674 394.291 94.3254C394.731 93.6173 394.731 93.6173 395.209 93.1006Z" fill="#EAEAEA"/>
<path d="M396.606 89.4067C396.976 89.4162 396.976 89.4162 397.353 89.4259C397.391 90.1531 397.391 90.1531 397.353 90.9568C397.151 91.1589 396.948 91.3609 396.74 91.5691C395.937 91.4543 395.937 91.4543 395.209 91.263C395.538 89.4328 395.538 89.4328 396.606 89.4067Z" fill="#EDEDED"/>
<path d="M377.47 91.8572C377.915 91.8667 377.915 91.8667 378.369 91.8763C378.47 92.3815 378.571 92.8867 378.676 93.4072C377.766 93.4072 376.857 93.4072 375.92 93.4072C376.301 91.881 376.301 91.881 377.47 91.8572Z" fill="#EFEFEF"/>
<path d="M356.018 87.8954C356.624 87.8954 357.231 87.8954 357.855 87.8954C357.855 88.4006 357.855 88.9058 357.855 89.4263C357.249 89.4263 356.643 89.4263 356.018 89.4263C356.018 88.9211 356.018 88.4159 356.018 87.8954Z" fill="#434343"/>
<path d="M69.4319 6.75732C70.1392 6.9594 70.8465 7.16148 71.5752 7.36969C71.4742 7.67281 71.3731 7.97593 71.269 8.28823C70.6628 8.08615 70.0566 7.88407 69.4319 7.67587C69.4319 7.37275 69.4319 7.06963 69.4319 6.75732Z" fill="#E3E3E3"/>
</g>
</g>
<defs>
<clipPath id="clip0_1_5">
<rect width="438.918" height="100.886" fill="white" transform="translate(0.541016 0.939453)"/>
</clipPath>
<clipPath id="clip1_1_5">
<rect width="438.759" height="145.13" fill="white" transform="translate(0.541016 -24.1664)"/>
</clipPath>
</defs>
</svg>
