<svg width="374" height="616" viewBox="0 0 374 616" fill="none" xmlns="http://www.w3.org/2000/svg">
<g clip-path="url(#clip0_5_240)">
<path d="M188.763 13.0358C189.855 13.1307 189.855 13.1307 191.043 13.4156C191.422 14.1042 191.422 14.1042 191.802 14.9352C192.55 15.4599 193.31 15.9665 194.082 16.4547C195.174 17.3967 195.549 18.1402 195.678 19.6095C195.714 21.5512 195.711 22.8465 194.462 24.4322C194.211 24.8082 193.96 25.1843 193.702 25.5718C194.005 25.632 194.309 25.6923 194.622 25.7543C199.833 26.8614 204.633 28.3577 207.71 32.932C209.435 35.851 210.114 38.5416 209.277 41.9066C208.47 42.9988 208.47 42.9988 207.757 43.806C207.894 45.1523 208.161 45.3461 209.244 46.2812C209.712 46.6305 210.182 46.9766 210.654 47.3199C212.229 48.4983 213.633 49.5884 214.833 51.1662C216.117 52.7675 217.625 53.2094 219.51 53.9115C222.405 55.2336 224.558 57.8403 226.572 60.2448C227.119 60.9099 227.119 60.9099 227.75 61.4853C228.859 62.667 228.776 64.1539 228.759 65.6818C228.535 67.578 227.695 69.1367 226.276 70.3977C225.445 71.3481 225.494 71.9774 225.522 73.2072C225.719 75.3797 226.222 77.5041 226.68 79.6335C226.779 80.1102 226.878 80.5869 226.981 81.0781C227.272 82.4594 227.577 83.8366 227.891 85.213C227.98 85.6143 228.07 86.0157 228.162 86.4292C228.656 88.462 229.065 89.8039 230.716 91.1961C233.139 93.4184 234 95.4004 234.785 98.5815C235.108 99.6459 235.534 100.489 236.082 101.453C237.179 103.497 237.303 105.494 237.544 107.774C237.813 109.419 238.382 110.595 239.201 112.027C239.878 113.358 240.168 114.739 240.476 116.194C240.747 117.186 240.747 117.186 241.625 117.862C242.326 118.642 242.326 118.642 242.356 119.666C241.797 121.379 240.919 122.781 239.952 124.293C239.77 124.584 239.589 124.874 239.402 125.173C238.68 126.325 237.957 127.475 237.205 128.608C237.031 128.875 236.857 129.141 236.677 129.416C236.52 129.651 236.362 129.887 236.2 130.13C235.63 131.278 235.976 132.245 236.248 133.458C236.57 135.693 236.429 137.26 235.18 139.18C233.463 141.403 231.183 143.588 228.651 144.854C228.651 150.37 228.651 155.886 228.651 161.569C230.656 162.321 232.662 163.073 234.729 163.848C236.909 165.592 237.887 166.986 238.288 169.756C238.352 170.809 238.368 171.851 238.366 172.906C238.374 173.481 238.374 173.481 238.382 174.068C238.398 175.283 238.404 176.498 238.409 177.714C238.42 178.929 238.433 180.145 238.448 181.36C238.456 182.113 238.462 182.866 238.466 183.619C238.305 188.041 238.305 188.041 240.221 191.803C241.104 192.611 242.013 193.382 242.951 194.126C243.121 194.288 243.291 194.451 243.466 194.618C243.466 194.869 243.466 195.12 243.466 195.378C243.717 195.378 243.967 195.378 244.226 195.378C244.852 196.109 245.433 196.84 246.006 197.61C246.177 197.835 246.347 198.06 246.523 198.292C247.731 199.898 248.896 201.531 250.037 203.185C250.728 204.179 251.44 205.157 252.156 206.134C252.679 206.853 253.201 207.573 253.723 208.294C254.011 208.691 254.299 209.087 254.595 209.496C257.615 213.709 259.558 217.668 260.628 222.752C261.037 224.612 261.414 225.932 262.84 227.288C266.369 229.419 270.759 230.975 274.877 230.113C276.188 229.299 276.976 228.29 277.655 226.908C277.942 224.865 277.448 223.758 276.516 221.97C276.397 220.925 276.397 220.925 276.516 220.07C277.482 219.104 277.88 219.187 279.222 219.168C281.578 219.218 283.367 219.73 285.075 221.398C285.846 222.298 286.496 223.264 287.152 224.249C288.094 224.471 288.094 224.471 289.194 224.558C292.285 225.012 295.505 226.078 297.504 228.618C298.186 229.981 298.383 230.729 298.169 232.227C297.481 232.914 296.532 232.684 295.613 232.716C291.162 232.749 291.162 232.749 287.488 234.939C286.907 235.594 286.333 236.255 285.766 236.922C283.324 239.664 280.531 241.897 276.766 242.167C276.049 242.174 275.332 242.142 274.616 242.103C274.651 242.797 274.651 242.797 274.687 243.504C274.698 245.005 274.304 245.782 273.477 247.042C273.976 248.539 274.934 249.09 276.159 249.986C277.573 251.043 278.964 252.093 280.267 253.286C281.643 254.523 283.115 255.598 284.612 256.681C287.053 258.45 289.404 260.295 291.711 262.237C292.109 262.569 292.507 262.9 292.905 263.231C295.749 265.607 298.489 268.078 301.208 270.594C303.047 272.286 304.892 273.942 306.859 275.485C308.573 276.834 310.178 278.277 311.769 279.766C312.638 280.577 313.507 281.342 314.449 282.068C314.718 282.293 314.986 282.519 315.263 282.751C315.263 283.001 315.263 283.252 315.263 283.51C315.514 283.51 315.765 283.51 316.023 283.51C316.567 284.063 316.567 284.063 317.201 284.831C318.672 286.559 320.25 288.146 321.87 289.734C322.483 290.34 323.096 290.947 323.708 291.553C324.659 292.492 325.61 293.43 326.564 294.366C330.305 298.041 333.774 301.725 336.917 305.923C337.675 306.849 338.454 307.754 339.243 308.654C339.628 309.099 340.013 309.545 340.398 309.991C340.581 310.203 340.764 310.415 340.953 310.634C354.427 326.316 354.427 326.316 354.13 333.609C353.463 340.273 350.21 345.925 347.056 351.698C345.805 353.989 344.576 356.287 343.389 358.612C343.265 358.856 343.14 359.1 343.012 359.351C342.524 360.305 342.038 361.259 341.557 362.216C339.954 365.404 338.181 368.329 336.157 371.263C335.846 371.744 335.537 372.227 335.231 372.711C334.484 373.784 333.679 374.286 332.572 374.966C330.213 376.692 329.833 379.295 329.092 381.978C328.543 383.952 327.703 385.716 326.798 387.55C326.229 388.854 325.887 390.135 325.544 391.515C324.897 393.95 323.942 395.405 322.101 397.094C320.336 398.807 320.336 398.807 319.062 400.893C319.346 402.152 319.697 403.136 320.202 404.312C325.88 418.119 326.33 432.737 326.29 447.463C326.289 447.834 326.288 448.204 326.287 448.587C326.277 452.079 326.263 455.571 326.243 459.063C326.133 471.406 326.133 471.406 327.04 483.707C327.074 484.001 327.108 484.295 327.143 484.598C327.411 486.858 327.733 489.108 328.056 491.36C328.701 496.051 328.627 500.183 327.799 504.838C326.463 513.04 326.535 520.989 330.459 528.533C331.281 530.625 331.281 530.625 330.838 531.952C328.934 533.142 326.901 533.799 324.76 534.445C324.516 534.52 324.271 534.595 324.018 534.672C319.016 536.12 313.755 536.787 308.615 537.579C308.309 537.626 308.003 537.674 307.688 537.723C299.222 539.028 290.717 540.046 282.214 541.069C280.78 544.975 280.78 544.975 280.694 549.047C281.231 550.017 281.905 550.784 282.665 551.587C282.848 551.793 283.032 551.999 283.221 552.211C284.361 553.48 285.564 554.68 286.772 555.884C287.366 556.482 287.96 557.08 288.553 557.678C289.226 558.355 289.898 559.031 290.571 559.707C290.909 560.048 291.247 560.389 291.595 560.74C291.923 561.07 292.251 561.399 292.589 561.738C292.886 562.037 293.182 562.335 293.487 562.642C294.371 563.508 294.371 563.508 295.407 564.303C296.269 565.001 296.269 565.001 296.649 565.761C296.988 569.488 295.528 573.103 293.23 576.018C290.92 578.583 288.351 580.743 285.633 582.856C284.95 583.408 284.27 583.962 283.591 584.518C283.066 584.946 283.066 584.946 282.53 585.383C281.809 585.98 281.096 586.587 280.39 587.202C272.839 593.731 265.678 597.093 255.622 596.532C254.303 596.361 253.11 596.115 251.823 595.772C252.025 599.89 252.509 603.906 253.153 607.975C253.24 608.537 253.326 609.099 253.413 609.661C253.736 611.751 254.068 613.831 254.483 615.905C212.738 615.905 170.993 615.905 127.983 615.905C128.359 614.401 128.735 612.897 129.122 611.347C129.365 610.075 129.594 608.809 129.802 607.532C129.858 607.192 129.915 606.853 129.973 606.503C130.091 605.793 130.207 605.084 130.323 604.374C130.5 603.296 130.679 602.219 130.858 601.141C130.973 600.446 131.088 599.751 131.203 599.056C131.255 598.739 131.308 598.422 131.362 598.095C131.693 596.059 131.948 594.025 132.161 591.973C131.785 592.098 131.409 592.224 131.022 592.353C122.721 593.46 113.424 593.661 106.472 588.435C104.343 586.672 102.418 584.692 100.487 582.717C99.1969 581.4 97.9059 580.196 96.4525 579.057C95.8113 578.432 95.1784 577.798 94.5531 577.158C94.2299 576.842 93.9067 576.527 93.5737 576.202C90.3765 572.93 86.9402 568.419 86.4406 563.736C86.6117 561.97 87.127 561.439 88.3563 560.182C88.5428 559.988 88.7294 559.793 88.9216 559.593C90.2976 558.181 91.7563 556.867 93.2235 555.552C95.5996 553.42 97.5482 551.074 99.4279 548.499C99.8244 547.97 100.249 547.462 100.677 546.957C101.635 545.762 102.185 545.022 102.085 543.458C101.813 542.353 101.458 541.356 101.011 540.309C100.88 540.003 100.75 539.697 100.615 539.382C99.9695 537.873 99.9695 537.873 98.7317 536.89C97.9677 536.832 97.202 536.795 96.4361 536.767C82.4255 536.158 64.0395 535.293 52.0065 527.393C52.2132 525.687 52.6545 524.456 53.4785 522.953C55.7523 518.559 56.2491 514.273 56.1956 509.401C56.1908 508.537 56.1861 507.673 56.1815 506.809C56.1722 505.468 56.1617 504.126 56.1487 502.785C56.0809 495.266 56.5144 487.875 57.2796 480.397C58.1543 471.757 57.7465 463.087 57.3248 454.433C56.4715 436.888 56.732 420.205 61.8701 403.259C62.0136 402.786 62.157 402.313 62.3048 401.825C62.434 401.407 62.5631 400.988 62.6962 400.557C63.3814 398.375 63.3814 398.375 63.0349 396.217C62.004 394.784 60.9722 393.479 59.6991 392.251C58.4251 391.022 57.8615 390.09 57.5756 388.316C57.2598 386.427 56.8069 384.959 55.8765 383.276C54.5871 380.873 54.0107 378.417 53.4595 375.766C52.8723 373.093 51.8926 372.071 49.6797 370.503C44.6765 366.574 42.3217 361.34 39.6604 355.711C39.2895 354.939 38.9181 354.167 38.546 353.396C37.6325 351.498 36.7275 349.595 35.8251 347.692C35.2908 346.568 34.7525 345.447 34.213 344.326C33.9547 343.787 33.9547 343.787 33.6912 343.239C33.3688 342.567 33.0456 341.896 32.7215 341.225C31.481 338.634 30.448 336.021 29.5936 333.275C29.501 332.985 29.4085 332.695 29.3131 332.396C28.328 328.965 28.6878 326.147 30.3533 323.018C32.3747 319.772 34.7327 316.825 37.1912 313.901C37.802 313.166 38.4115 312.43 39.0194 311.693C39.2882 311.369 39.557 311.045 39.834 310.712C40.6612 309.657 41.3878 308.559 42.1296 307.443C44.5274 304.221 47.0894 301.202 49.843 298.28C50.6365 297.432 51.4 296.577 52.149 295.69C53.402 294.234 54.7699 292.905 56.1377 291.559C58.0693 289.656 59.8164 287.711 61.4976 285.582C62.4499 284.423 63.5007 283.401 64.5782 282.36C65.3515 281.56 66.0112 280.72 66.6794 279.83C68.4168 277.564 69.8527 276.409 72.4963 275.367C75.5266 274.162 77.2481 272.405 79.3282 269.964C81.6885 267.306 84.2603 264.802 86.9673 262.5C87.8208 261.767 88.6444 261.005 89.4722 260.243C91.2057 258.675 93.0139 257.227 94.8671 255.805C96.0355 254.905 97.1545 253.977 98.2495 252.988C100.089 251.364 102.09 250.004 104.121 248.633C104.675 248.252 104.675 248.252 105.239 247.865C106.839 246.778 108.303 245.809 110.128 245.142C110.023 244.863 109.918 244.583 109.809 244.295C109.672 243.924 109.534 243.554 109.392 243.172C109.256 242.806 109.119 242.44 108.978 242.063C108.642 241.064 108.409 240.102 108.229 239.064C107.743 238.978 107.257 238.892 106.757 238.803C102.112 237.755 98.267 235.01 95.617 231.093C93.906 229.178 91.7639 228.981 89.3535 228.784C86.3423 228.525 86.3423 228.525 85.0561 227.668C85.4353 225.501 86.6164 224.406 88.2346 223.046C90.3102 221.601 92.5824 220.842 95.0991 220.688C96.5341 220.592 96.5341 220.592 97.2835 219.382C97.5107 218.982 97.7379 218.583 97.972 218.171C100.056 216.197 102.085 215.787 104.905 215.82C105.369 215.823 105.833 215.825 106.312 215.828C107.469 215.892 107.469 215.892 108.229 216.272C108.045 217.926 107.549 218.586 106.329 219.691C105.721 220.907 105.815 222.167 105.949 223.489C106.495 224.933 106.951 225.31 108.3 226.077C111.343 227.025 114.131 226.586 116.965 225.22C119.558 223.804 121.545 222.494 122.58 219.633C122.826 218.747 123.035 217.858 123.234 216.96C124.766 210.709 127.382 205.149 132.921 201.456C133.367 200.507 133.367 200.507 133.752 199.391C135.081 196.126 136.754 193.564 139.515 191.368C142.2 189.15 144.682 187.065 145.272 183.487C145.492 180.844 145.379 178.221 145.243 175.577C145.205 174.218 145.176 172.859 145.152 171.5C145.133 170.662 145.105 169.824 145.065 168.986C144.967 166.421 145.044 164.157 146.736 162.067C148.342 160.399 150.494 159.713 152.649 159.011C153.478 158.739 153.478 158.739 154.574 158.15C155.403 155.632 155.084 152.589 155.108 149.965C155.116 149.283 155.129 148.601 155.147 147.919C155.393 142.874 155.393 142.874 153.167 138.5C153.005 138.341 152.842 138.181 152.675 138.016C150.257 138.548 148.282 139.21 146.169 140.533C144.282 141.687 142.756 142.405 140.519 142.195C138.669 141.724 138.008 140.817 137.052 139.251C136.53 138.324 136.029 137.391 135.546 136.443C134.953 135.309 134.608 134.681 133.443 134.099C132.997 133.97 132.997 133.97 132.541 133.838C131.781 133.078 131.781 133.078 131.637 132.174C131.829 130.848 132.298 130.521 133.325 129.683C133.637 129.42 133.949 129.158 134.271 128.887C134.825 128.441 135.381 127.997 135.939 127.558C137.532 126.272 138.523 124.921 139.603 123.185C140.139 122.441 140.139 122.441 141.16 121.871C142.406 121.063 142.495 120.114 142.894 118.727C143.448 117.078 144.422 116.167 145.837 115.223C146.338 115.223 146.84 115.223 147.356 115.223C147.229 115.027 147.102 114.83 146.971 114.627C146.466 113.381 146.583 112.427 146.692 111.092C146.742 110.412 146.742 110.412 146.793 109.718C147.081 107.632 147.484 106.197 149.018 104.729C150.153 103.504 150.651 102.51 151.108 100.907C152.055 97.6993 154.003 94.3705 156.83 92.4782C158.147 91.4434 158.263 90.4261 158.492 88.7981C158.561 88.0208 158.63 87.2433 158.685 86.4648C158.758 85.5317 158.857 84.6042 158.962 83.6742C159.317 80.4506 159.592 77.2263 159.655 73.9828C159.67 73.5862 159.67 73.5862 159.685 73.1816C159.69 71.8561 159.598 71.261 158.744 70.2211C158.496 70.0286 158.248 69.8362 157.993 69.6379C157.931 70.3519 157.931 70.3519 157.867 71.0802C157.806 71.7075 157.745 72.3347 157.684 72.9618C157.658 73.2752 157.631 73.5886 157.604 73.9115C157.558 74.367 157.558 74.367 157.511 74.8316C157.485 75.1101 157.459 75.3886 157.432 75.6755C157.233 76.4757 157.233 76.4757 156.652 77.185C155.88 78.3053 155.97 79.0964 155.996 80.4467C156.001 80.9251 156.006 81.4035 156.012 81.8964C156.029 82.6449 156.029 82.6449 156.046 83.4085C156.181 91.3809 156.181 91.3809 155.215 92.7661C155.004 92.9218 154.792 93.0775 154.574 93.2379C154.334 93.4177 154.094 93.5974 153.847 93.7825C153.586 93.9632 153.324 94.1439 153.055 94.3301C152.785 94.5304 152.516 94.7307 152.238 94.937C150.43 96.228 148.462 97.4605 146.217 97.749C145.077 96.9893 145.077 96.9893 144.81 95.9439C144.7 94.7446 144.703 93.6416 144.786 92.4411C144.816 92.0091 144.845 91.5771 144.876 91.132C144.911 90.6752 144.946 90.2184 144.982 89.7478C145.018 89.2766 145.053 88.8053 145.09 88.3198C145.321 85.4159 145.595 82.5213 145.979 79.6335C146.018 79.3232 146.056 79.013 146.096 78.6933C146.492 75.9674 147.366 73.2563 149.28 71.2049C149.556 70.9008 149.556 70.9008 149.839 70.5906C150.399 70.0142 150.964 69.4438 151.535 68.8781C151.198 68.5256 150.861 68.173 150.514 67.8097C148.734 65.7205 147.306 63.138 147.119 60.3546C147.356 59.0013 147.356 59.0013 148.131 58.1614C149.55 57.3042 150.694 57.3234 152.295 57.4105C154.793 57.5469 154.793 57.5469 157.233 57.1019C157.617 56.7261 157.997 56.3459 158.373 55.9622C159.348 55.5452 159.348 55.5452 160.486 55.1787C160.893 55.045 161.3 54.9113 161.719 54.7736C162.801 54.4784 163.768 54.3531 164.878 54.2528C167.584 53.7743 169.019 51.2125 170.529 49.1244C170.972 48.5225 171.415 47.921 171.859 47.3199C172.027 47.079 172.196 46.8381 172.369 46.5899C172.514 46.4234 172.659 46.2569 172.808 46.0853C173.059 46.0853 173.31 46.0853 173.568 46.0853C173.412 45.8924 173.257 45.6995 173.096 45.5007C172.789 45.1084 172.789 45.1084 172.476 44.7083C172.273 44.4526 172.071 44.197 171.862 43.9337C170.177 41.3238 170.266 38.4486 170.529 35.4487C171.174 32.701 172.882 30.6885 175.088 28.9907C178.498 26.9479 181.787 25.9111 185.724 25.5718C185.85 24.3416 185.85 24.3416 184.798 23.3875C183.714 22.1327 183.415 21.1863 183.445 19.4937C184.352 17.3897 185.438 16.3646 187.244 14.9352C187.767 14.3157 188.28 13.6866 188.763 13.0358ZM113.571 308.369C112.159 309.186 111.113 309.463 109.487 309.532C107.454 309.631 106.705 310.235 105.19 311.621C104.618 311.836 104.039 312.032 103.457 312.215C100.784 313.188 98.9634 315.246 96.9796 317.206C96.4525 317.7 96.4525 317.7 95.5473 318.363C95.3446 318.52 95.1418 318.677 94.9329 318.839C94.9329 319.09 94.9329 319.341 94.9329 319.599C94.7214 319.689 94.5099 319.778 94.2919 319.871C93.2021 320.476 92.4176 321.233 91.514 322.092C90.0266 323.472 88.5271 324.717 86.8842 325.914C84.4498 327.704 81.7674 329.691 80.4975 332.515C80.5828 333.705 80.5828 333.705 80.9961 335.008C81.0659 335.26 81.1357 335.512 81.2076 335.771C81.3723 336.361 81.5409 336.95 81.7123 337.538C82.0677 338.768 82.4066 340.003 82.7456 341.237C83.0087 342.184 83.2724 343.131 83.5365 344.077C83.6626 344.532 83.7886 344.986 83.9184 345.455C84.9111 348.943 86.1375 352.025 88.0001 355.141C88.2332 355.534 88.4663 355.926 88.7065 356.33C88.968 356.764 88.968 356.764 89.2347 357.207C91.14 357.082 91.14 357.082 92.6537 356.067C93.9062 356.193 94.4097 356.304 95.3128 357.207C96.0664 357.258 96.0664 357.258 96.8323 356.827C97.1675 356.299 97.5015 355.769 97.8295 355.236C100.28 352.007 104.407 349.946 108.229 348.85C111.72 348.474 114.763 349.038 118.074 350.037C119.225 350.421 119.225 350.421 120.385 350.369C120.569 349.924 120.753 349.479 120.943 349.02C123.402 343.201 126.548 337.724 132.161 334.414C131.684 333.46 131.211 333.324 130.262 332.895C130.143 331.85 130.143 331.85 130.262 330.615C131.107 329.793 131.87 329.241 132.921 328.716C132.773 327.719 132.563 327.222 131.899 326.449C130.652 324.812 129.791 323.019 128.861 321.19C128.452 320.405 128.043 319.621 127.634 318.836C126.921 317.463 126.231 316.084 125.565 314.687C124.229 311.849 124.229 311.849 121.913 309.827C120.776 309.456 119.655 309.209 118.486 308.962C117.631 308.547 117.631 308.547 116.919 308.108C115.343 307.148 115.029 307.438 113.571 308.369ZM263.6 312.381C263.275 312.493 262.95 312.606 262.616 312.721C258.97 314.131 257.74 317.388 256.255 320.744C255.152 323.276 255.152 323.276 254.081 325.821C253.187 327.942 252.451 329.507 250.684 330.995C250.558 331.246 250.433 331.497 250.304 331.755C250.672 332.014 251.04 332.272 251.42 332.539C252.393 333.36 252.586 333.663 253.011 334.937C252.949 336.72 252.431 337.507 251.444 338.973C251.632 339.107 251.821 339.24 252.015 339.378C257.127 343.093 260.97 348.063 262.84 354.168C263.06 354.111 263.279 354.053 263.506 353.994C274.86 351.057 274.86 351.057 280.314 354.216C282.411 355.62 284.78 357.388 286.144 359.529C286.71 360.32 286.71 360.32 287.599 360.419C287.912 360.411 288.224 360.403 288.546 360.395C288.885 360.39 289.224 360.385 289.573 360.38C289.926 360.367 290.279 360.354 290.642 360.341C291 360.334 291.357 360.327 291.725 360.32C292.607 360.302 293.488 360.277 294.37 360.246C296.146 356.671 297.491 353.047 298.727 349.259C299.026 348.345 299.328 347.432 299.632 346.519C299.827 345.928 300.022 345.338 300.217 344.747C300.305 344.479 300.394 344.211 300.485 343.935C301.691 340.23 302.452 337.515 300.614 333.844C298.469 330.114 294.806 327.948 291.264 325.656C288.043 323.529 285.503 321.154 283.14 318.063C281.781 316.314 280.269 315.414 278.295 314.417C277.275 313.901 277.275 313.901 276.387 313.303C275.084 312.605 273.779 312.392 272.337 312.168C269.498 311.709 269.498 311.709 268.27 311.17C266.593 310.576 265.127 311.676 263.6 312.381Z" fill="#3B352E"/>
<path d="M201.635 132.536C201.9 132.715 202.165 132.893 202.439 133.078C202.791 133.305 203.144 133.532 203.507 133.766C206.604 136.863 207.201 141.042 207.214 145.23C207.085 149.642 204.812 153.05 201.808 156.182C200.675 157.238 199.475 158.171 198.236 159.099C196.103 160.751 195.338 162.901 194.461 165.367C194.367 165.604 194.273 165.841 194.176 166.085C193.247 168.567 193.066 170.975 192.918 173.606C192.551 179.814 192.551 179.814 191.422 180.942C190.663 180.958 189.903 180.959 189.143 180.942C188.708 180.072 188.677 179.477 188.613 178.507C187.976 168.01 187.976 168.01 182.648 159.303C181.802 158.578 180.936 157.884 180.062 157.194C177.059 154.783 175.166 151.927 173.948 148.273C173.565 143.48 173.474 138.513 176.607 134.597C183.094 127.414 193.804 127.495 201.635 132.536Z" fill="#E9E9E9"/>
<path d="M190.691 144.352C192.195 144.605 193.023 144.873 194.011 146.066C194.584 147.424 194.645 148.33 194.462 149.793C193.672 151.019 193.018 151.642 191.803 152.452C190.628 152.681 189.558 152.681 188.384 152.452C187.125 151.451 186.639 150.891 186.305 149.341C186.205 147.822 186.366 146.665 187.244 145.401C188.538 144.35 189.085 144.216 190.691 144.352Z" fill="#3B352E"/>
<path d="M74.0398 532.713C74.6652 532.757 75.2904 532.805 75.9155 532.855C76.2636 532.881 76.6118 532.908 76.9705 532.935C77.9263 533.056 78.7742 533.221 79.7024 533.452C82.0207 533.986 84.3795 534.151 86.7447 534.353C88.1001 534.469 89.4547 534.596 90.8094 534.72C92.1816 534.846 93.5538 534.971 94.9263 535.093C95.7842 535.171 96.6407 535.257 97.4974 535.348C97.9342 535.391 98.371 535.433 98.821 535.477C100.091 535.809 100.593 536.241 101.391 537.271C101.676 538.506 101.676 538.506 101.771 539.55C101.395 539.55 101.019 539.55 100.631 539.55C100.459 539.182 100.287 538.814 100.109 538.435C99.6217 537.244 99.6217 537.244 98.732 536.891C97.9191 536.824 97.1044 536.778 96.2895 536.741C95.7751 536.716 95.2608 536.691 94.7465 536.665C94.339 536.645 94.339 536.645 93.9233 536.625C89.3145 536.394 84.7583 536.029 80.1891 535.372C79.5211 535.277 79.5211 535.277 78.8397 535.181C75.501 534.675 75.501 534.675 74.0398 533.852C74.0398 533.476 74.0398 533.1 74.0398 532.713Z" fill="#3B352E"/>
<path d="M326.28 485.986C326.531 486.112 326.782 486.237 327.04 486.366C327.267 487.374 327.267 487.374 327.443 488.622C327.641 490.206 327.641 490.206 328.18 491.685C328.848 495.828 328.644 499.877 328.037 504.007C327.989 504.336 327.941 504.664 327.892 505.003C327.513 507.421 327.513 507.421 327.016 508.583C326.45 510.104 326.48 511.657 326.423 513.267C326.408 513.602 326.393 513.938 326.378 514.284C326.342 515.108 326.311 515.932 326.28 516.757C325.427 515.221 325.39 513.853 325.402 512.127C325.402 511.671 325.402 511.671 325.403 511.207C325.435 509.168 325.676 507.258 326.09 505.265C327.029 500.726 327.071 495.869 326.28 491.305C326.255 490.371 326.248 489.437 326.256 488.503C326.26 488.03 326.263 487.557 326.267 487.07C326.273 486.534 326.273 486.534 326.28 485.986Z" fill="#3B352E"/>
<path d="M327.799 524.735C328.05 525.111 328.301 525.487 328.559 525.875C328.802 526.219 329.045 526.564 329.295 526.919C330.12 528.218 330.7 529.367 331.218 530.813C330.838 531.953 330.838 531.953 329.604 532.689C325.462 534.605 321.273 535.31 316.783 535.752C316.174 535.815 316.174 535.815 315.553 535.881C314.697 535.969 313.841 536.053 312.984 536.131C313.853 535.115 314.454 534.822 315.766 534.615C316.092 534.56 316.417 534.505 316.753 534.448C317.1 534.392 317.447 534.337 317.804 534.28C320.463 533.817 323.042 533.274 325.615 532.451C325.871 532.37 326.126 532.288 326.389 532.204C327.569 531.869 327.569 531.869 328.559 531.193C328.653 529.545 328.619 528.448 327.799 527.014C327.799 526.638 327.799 526.262 327.799 525.875C327.549 525.875 327.298 525.875 327.04 525.875C327.42 525.115 327.42 525.115 327.799 524.735Z" fill="#3B352E"/>
<path d="M295.51 565.381C295.635 565.381 295.76 565.381 295.89 565.381C296.046 570.023 295.571 573.419 292.395 576.945C286.698 582.803 286.698 582.803 283.733 583.615C283.357 583.365 282.981 583.114 282.594 582.856C282.856 582.671 283.118 582.487 283.388 582.298C285.552 580.754 287.578 579.158 289.516 577.335C290.191 576.778 290.191 576.778 290.951 576.778C291.076 576.276 291.202 575.775 291.331 575.258C291.582 575.258 291.832 575.258 292.091 575.258C292.244 574.941 292.244 574.941 292.399 574.617C292.851 573.738 292.851 573.738 293.42 572.86C294.553 570.83 294.847 568.733 295.036 566.452C295.13 565.761 295.13 565.761 295.51 565.381Z" fill="#3B352E"/>
<path d="M277.275 588.175C276.766 589.702 276.036 589.96 274.687 590.81C273.024 591.859 273.024 591.859 271.55 593.146C270.724 593.966 269.942 594.393 268.894 594.894C268.569 595.052 268.243 595.21 267.907 595.373C266.642 595.942 265.664 596.198 264.288 596.176C263.571 596.164 263.571 596.164 262.84 596.152C262.965 595.651 263.091 595.149 263.22 594.633C262.718 594.507 262.217 594.382 261.7 594.253C262.191 594.21 262.683 594.167 263.189 594.124C267.839 593.63 270.631 592.674 274.236 589.694C276.382 588.175 276.382 588.175 277.275 588.175Z" fill="#3B352E"/>
<path d="M124.184 311.242C125.728 311.757 126.022 312.524 126.843 313.901C126.957 314.194 127.07 314.487 127.187 314.789C127.662 315.945 128.263 316.962 128.909 318.033C131.402 322.255 131.402 322.255 131.402 324.158C130.838 323.97 130.838 323.97 130.262 323.778C130.262 323.527 130.262 323.277 130.262 323.018C129.886 322.893 129.51 322.768 129.122 322.639C128.662 321.928 128.662 321.928 128.22 321.006C128.058 320.673 127.895 320.34 127.728 319.997C127.561 319.647 127.395 319.296 127.223 318.935C126.891 318.248 126.559 317.561 126.226 316.875C126.071 316.553 125.915 316.231 125.755 315.9C125.308 314.982 125.308 314.982 124.64 313.915C124.082 312.968 124.091 312.322 124.184 311.242Z" fill="#3B352E"/>
<path d="M192.182 144.855C192.182 145.231 192.182 145.607 192.182 145.994C192.558 146.12 192.935 146.245 193.322 146.374C193.322 146.75 193.322 147.126 193.322 147.514C192.946 147.388 192.57 147.263 192.182 147.134C192.182 146.883 192.182 146.632 192.182 146.374C191.806 146.374 191.43 146.374 191.043 146.374C191.544 147.001 192.046 147.628 192.562 148.273C192.311 148.273 192.061 148.273 191.802 148.273C191.802 148.9 191.802 149.527 191.802 150.173C190.33 149.84 190.33 149.84 189.903 149.413C189.527 149.789 189.151 150.165 188.763 150.553C188.387 150.427 188.011 150.302 187.624 150.173C187.932 149.247 187.932 149.247 188.384 148.273C188.76 148.148 189.136 148.023 189.523 147.894C189.398 147.016 189.272 146.139 189.143 145.234C190.242 144.921 191 144.855 192.182 144.855Z" fill="#3B352E"/>
<path d="M57.3249 502.321C58.0177 504.399 57.775 506.652 57.7761 508.826C57.7807 509.318 57.7854 509.809 57.7901 510.316C57.7942 512.956 57.7216 515.362 56.9451 517.896C56.569 518.084 56.569 518.084 56.1853 518.276C56.3107 513.136 56.436 507.996 56.5652 502.701C56.8159 502.575 57.0666 502.45 57.3249 502.321Z" fill="#3B352E"/>
<path d="M327.42 500.043C327.545 500.043 327.67 500.043 327.799 500.043C327.758 501.27 327.708 502.496 327.657 503.723C327.645 504.069 327.633 504.416 327.621 504.773C327.543 506.565 327.334 507.875 326.66 509.54C326.512 510.78 326.467 512.02 326.422 513.267C326.408 513.603 326.393 513.939 326.378 514.284C326.342 515.109 326.311 515.933 326.28 516.757C325.427 515.222 325.389 513.854 325.401 512.128C325.403 511.829 325.404 511.53 325.405 511.221C325.469 507.491 325.892 503.477 327.42 500.043Z" fill="#3B352E"/>
<path d="M58.0848 454.457C58.3355 454.457 58.5862 454.457 58.8445 454.457C59.0526 459.528 59.2593 464.6 59.2956 469.676C59.3005 470.005 59.3054 470.334 59.3105 470.673C59.3141 472.937 59.3141 472.937 58.4646 474.211C58.4551 473.908 58.4456 473.605 58.4358 473.293C58.3917 471.921 58.3451 470.549 58.2985 469.177C58.276 468.463 58.276 468.463 58.2532 467.734C58.2373 467.276 58.2214 466.818 58.205 466.346C58.191 465.924 58.1771 465.503 58.1628 465.068C58.121 463.999 58.121 463.999 57.8844 463.163C57.6609 462.256 57.6997 461.473 57.7509 460.541C57.7693 460.186 57.7876 459.831 57.8065 459.465C57.8278 459.097 57.8491 458.73 57.8711 458.351C57.8909 457.977 57.9108 457.604 57.9312 457.219C57.9803 456.298 58.0316 455.377 58.0848 454.457Z" fill="#3B352E"/>
<path d="M144.697 115.984C144.948 116.109 145.199 116.234 145.457 116.364C144.844 117.394 144.223 118.405 143.558 119.403C143.471 119.763 143.385 120.124 143.296 120.495C142.691 121.936 142.064 122.255 140.793 123.074C139.936 123.739 139.542 124.564 139.058 125.519C137.797 127.59 135.645 129.412 133.681 130.799C133.43 130.799 133.179 130.799 132.921 130.799C132.921 131.05 132.921 131.301 132.921 131.559C132.67 131.559 132.42 131.559 132.161 131.559C132.036 132.06 131.91 132.562 131.781 133.078C131.685 132.222 131.685 132.222 131.781 131.179C132.436 130.409 132.436 130.409 133.325 129.683C133.637 129.421 133.949 129.158 134.271 128.888C134.825 128.442 135.381 127.998 135.939 127.558C137.532 126.273 138.523 124.921 139.603 123.185C140.139 122.442 140.139 122.442 141.16 121.872C142.405 121.064 142.496 120.118 142.89 118.73C143.27 117.61 143.895 116.841 144.697 115.984Z" fill="#424242"/>
<path d="M327.8 524.735C328.05 525.111 328.301 525.487 328.559 525.875C328.802 526.219 329.045 526.564 329.295 526.919C330.12 528.218 330.7 529.367 331.218 530.813C330.839 531.953 330.839 531.953 330.217 532.383C328.648 533.142 327.279 533.676 325.52 533.852C326.683 532.855 326.938 532.713 328.559 532.713C328.434 532.336 328.309 531.96 328.179 531.573C328.305 531.448 328.43 531.322 328.559 531.193C328.653 529.545 328.619 528.448 327.8 527.014C327.8 526.638 327.8 526.262 327.8 525.875C327.549 525.875 327.298 525.875 327.04 525.875C327.42 525.115 327.42 525.115 327.8 524.735Z" fill="#3B352E"/>
<path d="M283.354 553.604C285.149 554.777 286.474 555.966 287.845 557.605C289.659 559.663 291.658 561.556 293.61 563.481C293.485 563.857 293.36 564.233 293.23 564.621C293.037 564.424 292.845 564.226 292.646 564.023C291.474 562.836 290.321 561.688 289.028 560.632C287.849 559.629 286.889 558.553 285.891 557.375C285.333 556.735 284.757 556.155 284.137 555.575C283.354 554.744 283.354 554.744 283.354 553.604Z" fill="#3B352E"/>
<path d="M57.705 430.145C57.8304 430.145 57.9557 430.145 58.0849 430.145C58.0849 435.661 58.0849 441.177 58.0849 446.86C57.8342 446.86 57.5835 446.86 57.3251 446.86C57.0012 444.937 56.9111 443.106 56.9779 441.156C56.986 440.876 56.994 440.595 57.0024 440.307C57.0198 439.719 57.0384 439.132 57.058 438.544C57.0878 437.645 57.1132 436.746 57.1382 435.846C57.1557 435.274 57.1735 434.701 57.1916 434.128C57.1991 433.86 57.2067 433.591 57.2144 433.315C57.2549 432.166 57.3391 431.243 57.705 430.145Z" fill="#3B352E"/>
<path d="M352.492 335.554C352.894 336.872 352.765 337.634 352.341 338.951C352.079 339.845 351.919 340.738 351.756 341.656C351.451 343.195 351.12 344.5 350.213 345.811C349.192 346.143 349.192 346.143 348.313 346.191C348.743 345.115 349.174 344.04 349.606 342.966C350.594 340.505 351.577 338.044 352.492 335.554Z" fill="#3B352E"/>
<path d="M324.761 472.692C325.011 472.692 325.262 472.692 325.52 472.692C326.335 474.017 326.369 475.064 326.354 476.603C326.351 477.29 326.351 477.29 326.347 477.991C326.341 478.467 326.334 478.944 326.328 479.434C326.324 479.917 326.321 480.399 326.317 480.896C326.308 482.087 326.296 483.277 326.28 484.468C325.352 483.54 325.389 483.181 325.28 481.899C325.248 481.537 325.216 481.174 325.184 480.8C325.154 480.42 325.124 480.04 325.093 479.648C325.06 479.275 325.028 478.902 324.994 478.518C324.829 476.569 324.722 474.647 324.761 472.692Z" fill="#3B352E"/>
<path d="M100.251 313.141C99.8139 314.079 99.4735 314.679 98.7319 315.42C98.3558 315.295 97.9797 315.17 97.5922 315.04C99.3967 313.141 99.3967 313.141 100.251 313.141ZM96.4526 315.8C96.7033 315.926 96.954 316.051 97.2124 316.18C96.5872 318.542 94.7209 319.769 92.7488 321.024C92.4667 321.18 92.1846 321.337 91.894 321.498C91.3299 321.874 91.3299 321.874 90.7544 322.258C90.629 321.882 90.5037 321.506 90.3745 321.119C92.1789 319.599 92.1789 319.599 93.0337 319.599C93.1306 319.374 93.2276 319.148 93.3275 318.916C93.8383 317.999 94.3603 317.505 95.1705 316.845C95.4104 316.647 95.6504 316.449 95.8976 316.245C96.1723 316.025 96.1723 316.025 96.4526 315.8Z" fill="#3B352E"/>
<path d="M132.541 591.214C132.792 591.339 133.043 591.465 133.301 591.594C133.182 594.921 132.978 598.192 132.375 601.471C132.329 601.732 132.282 601.993 132.234 602.262C132.111 602.891 131.95 603.512 131.781 604.13C131.405 604.318 131.405 604.318 131.022 604.51C131.065 603.425 131.113 602.341 131.164 601.257C131.176 600.953 131.188 600.649 131.2 600.336C131.292 598.45 131.603 596.828 132.161 595.013C132.26 594.327 132.342 593.638 132.399 592.947C132.427 592.619 132.456 592.29 132.485 591.951C132.503 591.708 132.522 591.465 132.541 591.214Z" fill="#3B352E"/>
<path d="M326.66 508.019C326.785 508.019 326.911 508.019 327.04 508.019C327.038 508.256 327.036 508.492 327.034 508.736C327.001 513.2 326.988 517.627 327.42 522.074C327.044 522.325 326.667 522.576 326.28 522.834C326.152 521.924 326.025 521.014 325.9 520.104C325.864 519.848 325.828 519.592 325.79 519.328C325.603 517.954 325.477 516.624 325.52 515.236C325.646 515.236 325.771 515.236 325.9 515.236C325.923 514.843 325.946 514.449 325.97 514.043C326.002 513.523 326.034 513.003 326.066 512.482C326.081 512.223 326.096 511.964 326.112 511.697C326.191 510.433 326.287 509.233 326.66 508.019Z" fill="#3B352E"/>
<path d="M114.687 306.683C114.687 306.934 114.687 307.185 114.687 307.443C114.436 307.443 114.185 307.443 113.927 307.443C113.927 307.819 113.927 308.195 113.927 308.583C112.211 309.587 110.979 309.948 108.989 309.722C108.34 309.143 108.34 309.143 107.849 308.583C108.442 308.335 109.035 308.09 109.63 307.847C109.96 307.71 110.291 307.573 110.631 307.433C112.009 306.932 113.221 306.683 114.687 306.683Z" fill="#3B352E"/>
<path d="M154.954 141.055C155.205 141.055 155.456 141.055 155.714 141.055C155.714 147.073 155.714 153.09 155.714 159.29C153.645 159.478 153.645 159.478 151.535 159.67C152.471 158.734 153.323 158.531 154.574 158.15C155.038 156.345 155.002 154.59 154.991 152.741C154.99 152.239 154.99 152.239 154.99 151.727C154.987 150.663 154.983 149.599 154.978 148.534C154.976 147.811 154.974 147.087 154.973 146.364C154.968 144.595 154.962 142.825 154.954 141.055Z" fill="#333333"/>
<path d="M115.447 305.923C115.663 306.029 115.879 306.134 116.101 306.242C117.519 306.907 118.675 307.42 120.243 307.609C121.85 307.877 123.054 308.534 124.184 309.722C124.184 310.098 124.184 310.474 124.184 310.862C123.933 310.862 123.683 310.862 123.424 310.862C123.299 310.611 123.174 310.36 123.044 310.102C122.269 309.838 121.484 309.606 120.694 309.39C118.804 308.832 117.322 308.351 115.827 307.063C115.701 306.687 115.576 306.311 115.447 305.923Z" fill="#3B352E"/>
<path d="M321.341 534.992C321.341 535.117 321.341 535.242 321.341 535.371C320.392 535.555 319.442 535.736 318.492 535.917C318.228 535.969 317.963 536.02 317.691 536.073C314.846 536.613 312.086 536.941 309.185 536.915C308.798 536.912 308.798 536.912 308.403 536.909C307.778 536.905 307.152 536.898 306.526 536.891C307.842 536.014 308.964 535.869 310.491 535.68C310.745 535.644 310.999 535.608 311.261 535.571C312.591 535.398 313.6 535.406 314.883 535.751C315.784 535.634 315.784 535.634 316.712 535.395C318.308 535.043 319.712 534.921 321.341 534.992Z" fill="#3B352E"/>
<path d="M59.2243 417.988C59.6087 419.184 59.5333 419.831 59.2243 421.027C59.1546 421.625 59.0965 422.224 59.0478 422.824C59.0181 423.16 58.9885 423.496 58.958 423.843C58.8978 424.55 58.8394 425.257 58.7829 425.965C58.7528 426.299 58.7227 426.634 58.6916 426.979C58.6662 427.286 58.6408 427.592 58.6146 427.908C58.5403 428.263 58.5403 428.263 58.4646 428.625C58.2139 428.75 57.9631 428.875 57.7048 429.004C57.3204 426.278 57.3674 423.758 57.7048 421.027C58.0809 420.902 58.457 420.776 58.8445 420.647C58.8366 420.279 58.8288 419.911 58.8207 419.531C58.8445 418.368 58.8445 418.368 59.2243 417.988Z" fill="#3B352E"/>
<path d="M342.235 357.967C342.776 359.592 342.072 360.638 341.404 362.122C341.23 362.53 341.23 362.53 341.053 362.946C340.372 364.486 339.714 365.568 338.436 366.704C338.311 366.955 338.185 367.206 338.056 367.464C337.805 367.464 337.555 367.464 337.296 367.464C337.813 365.766 338.489 364.273 339.338 362.715C339.672 362.098 339.672 362.098 340.012 361.469C340.707 360.26 341.448 359.117 342.235 357.967Z" fill="#3B352E"/>
<path d="M65.3024 281.612C65.3024 283.107 64.8184 283.394 63.8066 284.461C62.594 285.73 62.594 285.73 61.8835 287.31C61.3353 287.783 60.7851 288.255 60.2186 288.706C59.3165 289.445 58.5178 290.274 57.7048 291.109C57.1983 291.615 56.6918 292.122 56.1853 292.628C55.9346 292.503 55.6839 292.377 55.4255 292.248C55.6327 292.05 55.8398 291.852 56.0532 291.647C57.9932 289.754 59.7279 287.778 61.4205 285.663C62.624 284.218 63.9407 282.906 65.3024 281.612Z" fill="#3B352E"/>
<path d="M191.423 144.475C191.172 144.726 190.921 144.976 190.663 145.235C190.162 145.235 189.66 145.235 189.144 145.235C189.269 146.112 189.394 146.99 189.523 147.894C189.288 147.823 189.053 147.753 188.811 147.68C187.988 147.424 187.988 147.424 187.244 147.894C186.994 149.045 186.994 149.045 186.864 150.173C186.739 150.173 186.614 150.173 186.484 150.173C186.309 148.423 186.181 146.883 187.244 145.401C188.775 144.157 189.502 144.28 191.423 144.475Z" fill="#3B352E"/>
<path d="M159.133 81.4136C159.258 81.4136 159.384 81.4136 159.513 81.4136C159.546 83.028 159.566 84.6424 159.584 86.257C159.598 86.9446 159.598 86.9446 159.613 87.646C159.618 88.3071 159.618 88.3071 159.624 88.9815C159.633 89.5902 159.633 89.5902 159.642 90.2113C159.495 91.439 159.236 91.9379 158.373 92.81C157.162 93.2848 157.162 93.2848 156.094 93.5697C156.54 93.1819 156.54 93.1819 156.996 92.7862C158.655 90.8081 158.538 88.0567 158.753 85.5923C158.816 84.9488 158.816 84.9488 158.881 84.2924C158.972 83.3332 159.057 82.3741 159.133 81.4136Z" fill="#3B352E"/>
<path d="M326.28 485.986C326.656 486.175 326.656 486.175 327.04 486.366C327.952 489.582 327.888 492.932 327.799 496.243C327.549 496.118 327.298 495.993 327.04 495.863C326.127 492.648 326.192 489.298 326.28 485.986Z" fill="#3B352E"/>
<path d="M318.682 287.69C320.424 288.015 321.351 289.051 322.552 290.278C322.863 290.583 322.863 290.583 323.181 290.893C324.228 291.948 324.868 292.687 325.14 294.148C324.89 294.274 324.639 294.399 324.381 294.528C324.224 294.344 324.067 294.16 323.906 293.97C322.428 292.255 320.893 290.644 319.254 289.082C318.682 288.45 318.682 288.45 318.682 287.69Z" fill="#3B352E"/>
<path d="M295.51 565.381C295.635 565.381 295.76 565.381 295.89 565.381C296.103 571.723 296.103 571.723 294.394 573.928C293.61 574.498 293.61 574.498 292.471 574.878C292.573 574.682 292.674 574.486 292.779 574.285C292.928 573.979 293.077 573.673 293.23 573.359C293.513 572.806 293.513 572.806 293.8 572.243C294.555 570.502 294.724 568.653 294.967 566.785C295.13 565.761 295.13 565.761 295.51 565.381Z" fill="#3B352E"/>
<path d="M155.334 77.9951C155.459 77.9951 155.585 77.9951 155.714 77.9951C155.778 79.5082 155.839 81.0215 155.897 82.5349C155.927 83.2995 155.96 84.064 155.992 84.8284C156.185 89.9494 156.185 89.9494 155.714 92.0506C155.338 92.3013 154.962 92.5521 154.574 92.8104C154.825 87.9213 155.076 83.0323 155.334 77.9951Z" fill="#3B352E"/>
<path d="M148.116 62.8012C148.788 63.6751 149.402 64.551 149.992 65.4841C150.688 66.6123 150.688 66.6123 151.63 67.1936C152.295 67.7396 152.295 67.7396 152.532 68.6181C152.183 70.1183 151.23 71.0027 150.016 71.9183C149.765 71.9183 149.514 71.9183 149.256 71.9183C149.146 72.1612 149.036 72.4041 148.923 72.6543C148.496 73.4378 148.496 73.4378 147.736 73.8177C148.564 71.8612 150.037 70.3508 151.535 68.8793C151.384 68.7138 151.233 68.5483 151.077 68.3777C148.116 65.05 148.116 65.05 148.116 62.8012Z" fill="#3B352E"/>
<path d="M171.289 36.2086C171.414 36.2086 171.54 36.2086 171.669 36.2086C171.738 36.7235 171.738 36.7235 171.808 37.2488C171.872 37.6968 171.936 38.1449 172.001 38.6066C172.063 39.0517 172.125 39.4968 172.188 39.9554C172.361 41.2022 172.361 41.2022 173.188 42.2866C173.188 42.6627 173.188 43.0388 173.188 43.4263C173.439 43.4263 173.69 43.4263 173.948 43.4263C174.073 43.8024 174.199 44.1784 174.328 44.5659C173.701 44.6913 173.074 44.8166 172.429 44.9458C170.645 39.2778 170.645 39.2778 170.909 36.5884C171.034 36.4631 171.16 36.3377 171.289 36.2086Z" fill="#3B352E"/>
<path d="M58.4646 528.913C59.4552 529.138 60.4439 529.368 61.4324 529.602C61.7128 529.665 61.9931 529.728 62.2819 529.793C64.836 530.405 64.836 530.405 65.6823 531.573C64.9065 531.529 64.131 531.48 63.3556 531.43C62.9236 531.404 62.4917 531.377 62.0467 531.35C60.7614 531.195 59.6741 530.885 58.4646 530.433C58.4646 529.932 58.4646 529.43 58.4646 528.913Z" fill="#3B352E"/>
<path d="M254.483 593.873C254.984 594.123 255.486 594.374 256.002 594.632C256.002 594.883 256.002 595.134 256.002 595.392C256.253 595.392 256.504 595.392 256.762 595.392C256.762 595.643 256.762 595.894 256.762 596.152C256.153 596.162 255.543 596.17 254.934 596.176C254.425 596.182 254.425 596.182 253.905 596.189C252.963 596.152 252.963 596.152 251.823 595.772C251.372 594.989 251.372 594.989 251.064 594.253C251.557 594.26 252.051 594.268 252.559 594.276C253.074 594.284 253.589 594.28 254.103 594.253C254.228 594.127 254.353 594.002 254.483 593.873Z" fill="#3B352E"/>
<path d="M115.067 591.214C120.332 591.402 120.332 591.402 125.703 591.594C125.578 591.845 125.453 592.095 125.323 592.354C118.104 592.494 118.104 592.494 115.067 591.594C115.067 591.469 115.067 591.343 115.067 591.214Z" fill="#3B352E"/>
<path d="M56.5651 491.685C56.8158 491.685 57.0665 491.685 57.3248 491.685C57.6898 492.78 57.749 493.461 57.7418 494.597C57.74 495.106 57.74 495.106 57.7381 495.625C57.7349 495.978 57.7317 496.331 57.7284 496.694C57.7267 497.051 57.725 497.409 57.7233 497.777C57.7188 498.658 57.7125 499.54 57.7047 500.422C56.7267 499.563 56.5764 499.353 56.3573 497.991C56.3319 497.493 56.3064 496.994 56.2802 496.48C56.2508 495.984 56.2214 495.487 56.1911 494.976C56.1861 493.795 56.2752 492.822 56.5651 491.685Z" fill="#3B352E"/>
<path d="M281.454 539.929C282.238 540.095 282.238 540.095 282.974 540.309C282.801 540.567 282.629 540.826 282.451 541.092C281.77 542.324 281.421 543.507 281.074 544.867C280.824 544.867 280.573 544.867 280.315 544.867C280.315 545.118 280.315 545.369 280.315 545.627C280.064 545.627 279.813 545.627 279.555 545.627C279.298 543.64 280.188 542.032 281.074 540.309C281.2 540.183 281.325 540.058 281.454 539.929Z" fill="#3B352E"/>
<path d="M305.387 536.891C305.387 537.267 305.387 537.643 305.387 538.031C302.858 538.501 300.354 538.445 297.789 538.411C299.546 536.654 303.004 536.785 305.387 536.891Z" fill="#3B352E"/>
<path d="M58.8445 474.59C58.8445 476.722 58.8445 478.853 58.8445 481.048C58.4684 481.174 58.0923 481.299 57.7048 481.428C57.7048 479.297 57.7048 477.166 57.7048 474.97C58.4646 474.59 58.4646 474.59 58.8445 474.59Z" fill="#3B352E"/>
<path d="M188.764 13.0358C189.856 13.1307 189.856 13.1307 191.043 13.4156C191.423 14.1042 191.423 14.1042 191.803 14.9352C192.954 15.7876 192.954 15.7876 194.082 16.4547C193.322 16.8346 193.322 16.8346 192.135 16.4784C191.594 16.2786 191.594 16.2786 191.043 16.0748C190.918 15.448 190.792 14.8212 190.663 14.1754C190.036 14.1754 189.409 14.1754 188.764 14.1754C188.67 14.4026 188.576 14.6298 188.479 14.8639C187.93 15.8244 187.441 16.284 186.484 16.8346C186.108 16.7092 185.732 16.5838 185.345 16.4547C185.627 16.2431 185.909 16.0316 186.199 15.8136C187.213 14.9617 187.972 14.0915 188.764 13.0358Z" fill="#3B352E"/>
<path d="M282.974 583.616C282.7 585.281 281.902 585.879 280.639 586.91C279.814 587.5 279.006 587.88 278.035 588.174C278.154 587.438 278.154 587.438 278.415 586.655C278.791 586.529 279.167 586.404 279.555 586.275C279.555 586.024 279.555 585.773 279.555 585.515C280.11 585.025 280.11 585.025 280.837 584.518C281.194 584.264 281.194 584.264 281.558 584.004C282.214 583.616 282.214 583.616 282.974 583.616Z" fill="#3B352E"/>
<path d="M62.6435 404.693C63.3706 406.147 62.3907 407.969 61.955 409.465C61.8509 409.839 61.7469 410.213 61.6397 410.598C61.4865 411.131 61.4865 411.131 61.3303 411.675C61.2363 412.002 61.1424 412.33 61.0456 412.667C60.7441 413.43 60.7441 413.43 59.9844 413.81C60.028 413.208 60.0764 412.607 60.1268 412.006C60.1533 411.671 60.1797 411.336 60.207 410.991C60.3652 410.006 60.6828 409.374 61.124 408.492C61.124 407.99 61.124 407.489 61.124 406.972C61.3747 406.972 61.6255 406.972 61.8838 406.972C61.9386 406.667 61.9935 406.361 62.05 406.046C62.2637 405.073 62.2637 405.073 62.6435 404.693Z" fill="#3B352E"/>
<path d="M267.019 309.723C268.396 309.865 268.396 309.865 269.678 310.102C269.678 310.353 269.678 310.604 269.678 310.862C271.934 311.238 271.934 311.238 274.237 311.622C273.857 312.382 273.857 312.382 273.192 312.643C272.188 312.782 271.415 312.626 270.438 312.382C270.438 312.131 270.438 311.88 270.438 311.622C269.059 311.246 267.68 310.87 266.259 310.482C266.51 310.232 266.76 309.981 267.019 309.723Z" fill="#3B352E"/>
<path d="M131.402 329.856C131.663 330.802 131.781 331.519 131.781 332.515C132.283 332.64 132.784 332.766 133.301 332.895C133.176 333.271 133.05 333.647 132.921 334.035C130.309 333.322 130.309 333.322 129.882 332.895C129.866 332.135 129.866 331.375 129.882 330.616C130.383 330.365 130.885 330.114 131.402 329.856Z" fill="#3B352E"/>
<path d="M279.175 547.527C279.551 547.527 279.927 547.527 280.315 547.527C280.401 547.786 280.487 548.044 280.576 548.311C281.21 549.729 282.046 550.84 282.974 552.086C282.848 552.336 282.723 552.587 282.594 552.845C282.343 552.845 282.093 552.845 281.834 552.845C281.345 552.291 281.345 552.291 280.837 551.563C280.668 551.325 280.498 551.087 280.324 550.842C279.935 550.186 279.935 550.186 279.935 549.427C279.684 549.427 279.433 549.427 279.175 549.427C279.175 548.8 279.175 548.173 279.175 547.527Z" fill="#3B352E"/>
<path d="M84.6765 264.516C84.8018 264.767 84.9272 265.017 85.0563 265.276C82.9136 267.901 80.5057 270.03 77.8386 272.114C78.3805 270.876 79.0417 270.061 80.0022 269.116C80.4098 268.712 80.4098 268.712 80.8257 268.3C81.1093 268.023 81.3928 267.746 81.6849 267.46C81.9714 267.177 82.2578 266.894 82.553 266.602C83.2591 265.905 83.967 265.21 84.6765 264.516Z" fill="#303030"/>
<path d="M97.2124 219.311C97.3377 219.311 97.4631 219.311 97.5922 219.311C97.5922 220.063 97.5922 220.815 97.5922 221.59C95.085 221.841 92.5778 222.092 89.9946 222.35C91.6071 221.275 93.1145 220.838 95.028 220.664C95.4981 220.594 95.9682 220.523 96.4526 220.451C96.7033 220.075 96.954 219.698 97.2124 219.311Z" fill="#3B352E"/>
<path d="M97.2124 535.751C99.6028 535.567 99.6028 535.567 100.774 536.368C101.505 537.437 101.655 538.271 101.771 539.55C101.395 539.55 101.019 539.55 100.631 539.55C100.49 539.197 100.349 538.845 100.204 538.481C99.3741 537.071 98.7064 536.728 97.2124 536.131C97.2124 536.005 97.2124 535.88 97.2124 535.751Z" fill="#3B352E"/>
<path d="M57.3249 482.947C57.5756 483.073 57.8263 483.198 58.0846 483.327C58.0846 485.333 58.0846 487.339 58.0846 489.405C57.3249 489.025 57.3249 489.025 57.0904 488.363C56.9294 487.414 56.8946 486.522 56.8975 485.559C56.8965 485.229 56.8955 484.899 56.8945 484.559C56.945 483.707 56.945 483.707 57.3249 482.947Z" fill="#3B352E"/>
<path d="M128.363 318.46C129.502 318.84 129.502 318.84 130.029 319.751C130.192 320.124 130.355 320.497 130.523 320.882C130.772 321.438 130.772 321.438 131.026 322.006C131.402 323.018 131.402 323.018 131.402 324.158C130.262 323.778 130.262 323.778 129.735 322.867C129.572 322.494 129.409 322.121 129.241 321.736C129.075 321.365 128.909 320.994 128.738 320.612C128.363 319.599 128.363 319.599 128.363 318.46Z" fill="#3B352E"/>
<path d="M124.184 311.242C125.726 311.756 126.053 312.513 126.843 313.901C126.843 314.403 126.843 314.904 126.843 315.421C126.154 315.35 126.154 315.35 125.323 315.041C124.327 313.76 124.046 312.854 124.184 311.242Z" fill="#3B352E"/>
<path d="M200.16 157.01C200.411 157.136 200.661 157.261 200.92 157.39C199.547 159.171 199.547 159.171 199.02 159.67C198.644 159.67 198.268 159.67 197.881 159.67C197.787 159.967 197.693 160.265 197.596 160.572C197.062 161.692 196.738 161.912 195.601 162.329C196.133 160.609 196.954 159.764 198.308 158.601C198.654 158.301 198.999 158.001 199.356 157.692C199.754 157.354 199.754 157.354 200.16 157.01Z" fill="#565656"/>
<path d="M278.097 219.237C278.56 219.25 278.56 219.25 279.032 219.264C279.498 219.274 279.498 219.274 279.973 219.285C280.33 219.298 280.33 219.298 280.694 219.311C280.331 219.383 280.331 219.383 279.961 219.455C279.108 219.614 279.108 219.614 278.747 220.427C278.638 220.686 278.528 220.944 278.415 221.211C278.164 221.461 277.914 221.712 277.655 221.971C277.279 221.971 276.903 221.971 276.516 221.971C276.468 221.068 276.468 221.068 276.516 220.071C277.275 219.311 277.275 219.311 278.097 219.237Z" fill="#3B352E"/>
<path d="M192.182 144.855C192.182 145.231 192.182 145.607 192.182 145.994C192.558 146.12 192.935 146.245 193.322 146.374C193.322 146.75 193.322 147.126 193.322 147.514C192.946 147.388 192.57 147.263 192.182 147.134C192.182 146.883 192.182 146.632 192.182 146.374C191.681 146.249 191.179 146.123 190.663 145.994C190.537 146.37 190.412 146.746 190.283 147.134C190.032 147.134 189.782 147.134 189.523 147.134C189.398 146.507 189.272 145.88 189.143 145.234C190.242 144.921 191 144.855 192.182 144.855Z" fill="#3B352E"/>
<path d="M102.151 351.13C102.402 351.255 102.652 351.381 102.911 351.51C102.686 351.707 102.461 351.904 102.229 352.108C99.2832 354.622 99.2832 354.622 96.8325 357.588C96.3311 357.462 95.8296 357.337 95.313 357.208C95.6891 357.083 96.0652 356.957 96.4526 356.828C96.8743 356.202 97.2958 355.576 97.7169 354.949C98.9574 353.425 100.584 352.301 102.151 351.13Z" fill="#3B352E"/>
<path d="M208.137 36.2086C208.388 36.3339 208.639 36.4593 208.897 36.5884C209.107 41.8375 209.107 41.8375 207.758 43.8062C207.381 43.8062 207.005 43.8062 206.618 43.8062C206.743 43.3047 206.869 42.8033 206.998 42.2866C207.249 42.2866 207.499 42.2866 207.758 42.2866C207.982 40.2546 208.191 38.2565 208.137 36.2086Z" fill="#3B352E"/>
<path d="M227.891 63.5596C228.016 63.5596 228.142 63.5596 228.271 63.5596C228.562 67.2559 228.562 67.2559 227.848 68.4387C227.321 68.9492 227.321 68.9492 226.372 69.6377C226.246 69.1363 226.121 68.6348 225.992 68.1182C226.242 68.1182 226.493 68.1182 226.751 68.1182C227.128 66.6139 227.504 65.1095 227.891 63.5596Z" fill="#3B352E"/>
<path d="M199.4 27.4712C201.179 27.6683 202.344 28.135 203.84 29.1094C204.194 29.3352 204.548 29.5609 204.913 29.7935C205.81 30.474 206.381 31.0956 206.998 32.0298C206.872 32.2805 206.747 32.5312 206.618 32.7895C206.532 32.5545 206.445 32.3194 206.357 32.0772C205.703 31.0189 205.11 30.9387 203.959 30.5102C203.661 30.2673 203.363 30.0245 203.056 29.7742C201.879 28.849 200.79 28.3961 199.4 27.8511C199.4 27.7257 199.4 27.6004 199.4 27.4712Z" fill="#3B352E"/>
<path d="M95.6928 553.985C95.6928 555.125 95.6928 555.125 94.8381 556.027C94.4934 556.356 94.1486 556.685 93.7934 557.024C93.5427 557.369 93.292 557.714 93.0337 558.069C92.1552 559.057 91.6686 559.196 90.3745 559.303C91.8454 557.419 93.4928 555.909 95.313 554.365C95.4383 554.24 95.5637 554.114 95.6928 553.985Z" fill="#3B352E"/>
<path d="M327.8 524.735C328.05 525.111 328.301 525.487 328.559 525.875C328.826 526.251 329.092 526.627 329.367 527.014C330.079 528.154 330.079 528.154 330.079 529.294C329.828 529.294 329.577 529.294 329.319 529.294C329.194 529.795 329.068 530.296 328.939 530.813C328.446 529.168 328.049 527.579 327.8 525.875C327.549 525.875 327.298 525.875 327.04 525.875C327.42 525.115 327.42 525.115 327.8 524.735Z" fill="#3B352E"/>
<path d="M132.161 597.672C132.287 597.672 132.412 597.672 132.541 597.672C132.622 599.887 132.53 602.019 131.781 604.13C131.531 604.255 131.28 604.38 131.022 604.51C131.065 603.655 131.114 602.8 131.164 601.945C131.191 601.469 131.217 600.994 131.244 600.503C131.384 599.339 131.552 598.652 132.161 597.672Z" fill="#3B352E"/>
<path d="M287.247 539.098C287.861 539.114 287.861 539.114 288.488 539.129C288.799 539.143 289.111 539.156 289.432 539.17C288.145 540.359 287.262 540.437 285.538 540.38C284.924 540.365 284.924 540.365 284.297 540.349C283.986 540.336 283.674 540.323 283.354 540.309C284.64 539.12 285.523 539.042 287.247 539.098Z" fill="#3B352E"/>
<path d="M146.597 139.157C146.973 139.282 147.349 139.407 147.737 139.536C145.302 141.198 143.485 142.1 140.519 142.196C140.644 141.945 140.77 141.694 140.899 141.436C141.531 141.246 142.165 141.059 142.804 140.893C144.863 140.309 144.863 140.309 146.597 139.157Z" fill="#3A3A3A"/>
<path d="M350.972 340.492C351.397 341.905 351.397 341.905 350.996 342.866C350.796 343.195 350.796 343.195 350.593 343.531C350.342 343.531 350.091 343.531 349.833 343.531C349.833 344.283 349.833 345.035 349.833 345.81C349.331 345.936 348.83 346.061 348.313 346.19C348.832 344.845 349.418 343.559 350.07 342.273C350.324 341.77 350.324 341.77 350.584 341.256C350.712 341.004 350.84 340.752 350.972 340.492Z" fill="#3B352E"/>
<path d="M292.898 231.064C293.314 231.068 293.731 231.071 294.159 231.075C294.48 231.079 294.8 231.083 295.13 231.088C295.13 231.339 295.13 231.589 295.13 231.848C293.249 232.098 291.369 232.349 289.432 232.607C289.557 232.231 289.682 231.855 289.812 231.468C290.862 230.943 291.728 231.052 292.898 231.064Z" fill="#3B352E"/>
<path d="M192.562 171.825C192.688 171.825 192.813 171.825 192.942 171.825C193.017 173.067 193.087 174.31 193.156 175.553C193.177 175.905 193.198 176.258 193.22 176.622C193.239 176.961 193.257 177.3 193.276 177.649C193.294 177.962 193.312 178.274 193.33 178.596C193.322 179.423 193.322 179.423 192.942 180.562C192.159 180.823 192.159 180.823 191.423 180.942C191.543 180.573 191.664 180.205 191.788 179.825C192.256 178.186 192.35 176.584 192.42 174.888C192.434 174.592 192.449 174.296 192.464 173.991C192.5 173.269 192.531 172.547 192.562 171.825Z" fill="#3B352E"/>
<path d="M180.786 131.56C180.786 132.319 180.786 132.319 180.174 132.935C179.772 133.277 179.772 133.277 179.361 133.625C179.097 133.852 178.832 134.079 178.56 134.312C177.797 134.937 177.021 135.534 176.227 136.118C176.227 134.979 176.227 134.979 176.865 134.216C177.141 133.95 177.416 133.685 177.699 133.412C177.973 133.144 178.246 132.877 178.527 132.601C179.325 131.887 179.71 131.56 180.786 131.56Z" fill="#C7C7C7"/>
<path d="M226.372 60.5217C228.223 61.8988 228.223 61.8988 228.651 63.1809C228.676 63.774 228.683 64.368 228.675 64.9616C228.671 65.2686 228.668 65.5756 228.664 65.892C228.66 66.1256 228.655 66.3591 228.651 66.5998C228.4 66.0984 228.149 65.5969 227.891 65.0803C227.64 65.0803 227.39 65.0803 227.131 65.0803C227.147 64.6102 227.163 64.1401 227.179 63.6557C227.183 62.4149 227.077 61.5798 226.372 60.5217Z" fill="#3B352E"/>
<path d="M268.158 594.252C268.158 594.628 268.158 595.004 268.158 595.392C267.013 595.773 266.243 595.811 265.048 595.795C264.535 595.79 264.535 595.79 264.011 595.785C263.75 595.78 263.489 595.776 263.22 595.771C263.345 595.521 263.471 595.27 263.6 595.012C265.232 594.53 266.453 594.252 268.158 594.252Z" fill="#3B352E"/>
<path d="M153.435 137.257C154.337 138.301 154.337 138.301 154.954 139.536C154.829 140.038 154.703 140.539 154.574 141.056C153.947 140.053 153.321 139.05 152.675 138.017C152.338 138.142 152.001 138.267 151.654 138.396C150.506 138.743 149.68 138.846 148.496 138.776C149.003 138.523 149.509 138.27 150.016 138.017C150.258 137.876 150.501 137.734 150.752 137.589C151.77 137.157 152.341 137.038 153.435 137.257Z" fill="#3B352E"/>
<path d="M108.229 588.175C109.42 588.335 110.466 588.842 111.553 589.338C111.857 589.476 112.16 589.613 112.473 589.755C112.702 589.86 112.931 589.966 113.167 590.074C113.042 590.325 112.917 590.575 112.788 590.834C110.926 590.34 109.226 589.723 107.469 588.934C107.72 588.684 107.971 588.433 108.229 588.175Z" fill="#3B352E"/>
<path d="M297.029 538.03C296.904 538.281 296.779 538.532 296.649 538.79C295.449 538.947 295.449 538.947 293.966 539.027C293.476 539.056 292.986 539.084 292.481 539.113C292.102 539.132 291.722 539.151 291.331 539.17C291.989 538.362 292.355 538.057 293.386 537.822C293.719 537.797 294.051 537.772 294.394 537.745C294.894 537.701 294.894 537.701 295.404 537.656C296.269 537.65 296.269 537.65 297.029 538.03Z" fill="#3B352E"/>
<path d="M276.136 312.381C277.062 312.524 277.062 312.524 278.035 312.761C278.161 313.012 278.286 313.263 278.415 313.521C279.293 313.921 280.179 314.302 281.074 314.66C279.864 315.266 278.946 314.95 277.656 314.66C276.73 313.924 276.73 313.924 276.136 313.141C276.136 312.89 276.136 312.64 276.136 312.381Z" fill="#3B352E"/>
<path d="M124.944 214.373C125.511 215.507 125.098 216.254 124.778 217.459C124.668 217.876 124.559 218.292 124.447 218.721C124.36 219.041 124.273 219.361 124.184 219.691C123.933 219.691 123.683 219.691 123.424 219.691C123.458 219.089 123.499 218.488 123.543 217.887C123.576 217.384 123.576 217.384 123.61 216.872C123.829 215.77 124.213 215.211 124.944 214.373Z" fill="#3B352E"/>
<path d="M149.256 63.9402C149.467 64.2458 149.679 64.5514 149.897 64.8662C150.878 65.9532 151.276 66.0305 152.675 66.2195C153.189 67.2485 153.079 68.1225 153.055 69.2586C151.689 67.9321 150.41 66.5967 149.256 65.0799C149.256 64.7038 149.256 64.3277 149.256 63.9402Z" fill="#3B352E"/>
<path d="M167.111 53.3026C167.236 53.5533 167.361 53.8041 167.49 54.0624C167.114 54.6265 167.114 54.6265 166.731 55.202C165.576 55.3133 165.576 55.3133 164.214 55.2732C163.762 55.263 163.311 55.2527 162.846 55.2421C162.324 55.2222 162.324 55.2222 161.792 55.202C162.935 54.4401 163.557 54.268 164.879 54.0386C166.108 53.9043 166.108 53.9043 167.111 53.3026Z" fill="#3B352E"/>
<path d="M277.276 588.175C276.812 589.566 276.376 589.756 275.163 590.525C274.849 590.726 274.535 590.928 274.211 591.135C273.969 591.286 273.727 591.438 273.477 591.594C273.226 591.468 272.975 591.343 272.717 591.214C275.539 588.175 275.539 588.175 277.276 588.175Z" fill="#3B352E"/>
<path d="M119.625 308.203C123.044 308.488 123.044 308.488 124.184 309.722C124.184 310.098 124.184 310.475 124.184 310.862C123.933 310.862 123.683 310.862 123.424 310.862C123.299 310.611 123.174 310.361 123.044 310.102C122.242 309.758 122.242 309.758 121.311 309.485C120.997 309.386 120.683 309.287 120.36 309.185C120.118 309.112 119.875 309.038 119.625 308.963C119.625 308.712 119.625 308.461 119.625 308.203Z" fill="#3B352E"/>
<path d="M98.3523 252.741C98.603 252.866 98.8537 252.992 99.112 253.121C98.7565 253.541 98.4002 253.96 98.0436 254.379C97.7461 254.729 97.7461 254.729 97.4426 255.087C97.2414 255.316 97.0401 255.544 96.8327 255.78C96.5602 256.117 96.5602 256.117 96.2822 256.461C96.0878 256.612 95.8934 256.764 95.6931 256.919C95.1917 256.794 94.6902 256.669 94.1736 256.54C96.242 254.659 96.242 254.659 98.3523 252.741Z" fill="#3B352E"/>
<path d="M205.478 150.553C205.858 151.312 205.858 151.312 205.621 152.381C204.786 154.316 203.556 155.372 201.679 156.251C201.826 156.062 201.973 155.874 202.125 155.68C203.39 154.029 204.488 152.381 205.478 150.553Z" fill="#6B6B6B"/>
<path d="M187.244 145.614C187.369 145.865 187.495 146.116 187.624 146.374C188.584 146.623 188.584 146.623 189.523 146.754C189.523 147.13 189.523 147.506 189.523 147.894C189.288 147.823 189.053 147.753 188.811 147.68C187.988 147.424 187.988 147.424 187.244 147.894C186.994 149.044 186.994 149.044 186.864 150.173C186.739 150.173 186.614 150.173 186.484 150.173C186.464 149.627 186.449 149.081 186.437 148.535C186.428 148.231 186.419 147.927 186.41 147.613C186.484 146.754 186.484 146.754 187.244 145.614Z" fill="#3E3E3E"/>
<path d="M251.064 600.331C251.189 600.331 251.314 600.331 251.444 600.331C251.97 602.403 252.294 604.269 252.203 606.409C251.953 606.409 251.702 606.409 251.444 606.409C251.038 605.093 251.025 603.886 251.04 602.515C251.045 601.901 251.045 601.901 251.05 601.274C251.055 600.963 251.059 600.651 251.064 600.331Z" fill="#3B352E"/>
<path d="M66.822 531.572C68.8278 531.823 70.8336 532.074 72.9001 532.332C72.9001 532.583 72.9001 532.833 72.9001 533.092C70.771 532.932 68.8275 532.744 66.822 531.952C66.822 531.827 66.822 531.701 66.822 531.572Z" fill="#3B352E"/>
<path d="M88.855 322.259C89.1057 322.384 89.3564 322.51 89.6147 322.639C89.4894 322.89 89.364 323.14 89.2348 323.399C88.9841 323.399 88.7334 323.399 88.4751 323.399C88.3889 323.618 88.3027 323.837 88.2139 324.063C87.5898 325.133 86.8054 325.709 85.8159 326.438C85.5652 326.312 85.3145 326.187 85.0562 326.058C86.9556 323.561 86.9556 323.561 88.855 323.019C88.855 322.768 88.855 322.517 88.855 322.259Z" fill="#3B352E"/>
<path d="M296.27 267.176C297.124 267.2 297.124 267.2 298.169 267.556C298.859 268.409 299.225 269.199 299.688 270.215C299.563 270.466 299.438 270.717 299.309 270.975C298.739 270.453 298.739 270.453 298.169 269.835C298.169 269.585 298.169 269.334 298.169 269.076C297.926 268.974 297.683 268.872 297.433 268.767C296.649 268.316 296.649 268.316 296.27 267.176Z" fill="#3B352E"/>
<path d="M324.76 451.797C325.137 451.922 325.513 452.048 325.9 452.177C325.9 453.556 325.9 454.935 325.9 456.355C325.524 456.105 325.148 455.854 324.76 455.596C324.649 454.69 324.649 454.69 324.689 453.649C324.699 453.303 324.71 452.957 324.72 452.601C324.734 452.336 324.747 452.07 324.76 451.797Z" fill="#3B352E"/>
<path d="M345.274 351.509C345.525 351.509 345.776 351.509 346.034 351.509C345.702 354.073 345.702 354.073 345.274 354.928C344.773 354.803 344.271 354.677 343.755 354.548C344.256 353.545 344.758 352.542 345.274 351.509Z" fill="#3B352E"/>
<path d="M252.204 335.175C252.329 335.175 252.454 335.175 252.583 335.175C252.702 336.433 252.702 336.433 252.583 337.834C251.634 338.57 251.634 338.57 250.684 338.974C250.684 337.454 250.684 337.454 251.444 336.314C251.695 336.314 251.945 336.314 252.204 336.314C252.204 335.938 252.204 335.562 252.204 335.175Z" fill="#3B352E"/>
<path d="M100.251 313.141C99.8139 314.079 99.4735 314.679 98.7319 315.42C98.3558 315.295 97.9797 315.17 97.5923 315.04C99.3967 313.141 99.3967 313.141 100.251 313.141ZM96.4526 315.8C96.7034 315.926 96.9541 316.051 97.2124 316.18C96.8363 316.744 96.8363 316.744 96.4526 317.32C96.2019 317.32 95.9512 317.32 95.6929 317.32C95.9436 316.818 96.1943 316.317 96.4526 315.8Z" fill="#3B352E"/>
<path d="M283.354 256.919C285.098 257.484 286.178 258.382 287.532 259.578C287.407 259.954 287.281 260.33 287.152 260.718C286.518 260.157 285.885 259.595 285.253 259.032C284.9 258.719 284.548 258.406 284.185 258.084C283.91 257.825 283.636 257.566 283.354 257.299C283.354 257.174 283.354 257.048 283.354 256.919Z" fill="#3B352E"/>
<path d="M295.51 565.381C295.635 565.381 295.76 565.381 295.89 565.381C295.92 566.054 295.943 566.726 295.961 567.399C295.981 567.961 295.981 567.961 296.001 568.534C295.89 569.56 295.89 569.56 295.315 570.265C295.129 570.408 294.942 570.552 294.75 570.699C294.803 569.884 294.859 569.069 294.916 568.254C294.947 567.8 294.978 567.346 295.01 566.878C295.13 565.761 295.13 565.761 295.51 565.381Z" fill="#3B352E"/>
<path d="M66.4419 281.612C66.4419 282.751 66.4419 282.751 65.694 283.527C65.3767 283.796 65.0593 284.065 64.7324 284.342C64.4151 284.614 64.0978 284.885 63.7708 285.165C63.524 285.372 63.2772 285.578 63.0229 285.79C63.0229 284.651 63.0229 284.651 63.7708 283.874C64.0882 283.606 64.4055 283.337 64.7324 283.06C65.0497 282.788 65.367 282.516 65.694 282.236C65.9408 282.03 66.1876 281.824 66.4419 281.612Z" fill="#3B352E"/>
<path d="M146.977 110.665C147.357 112.184 147.357 112.184 147.523 112.921C147.776 113.848 148.127 114.716 148.496 115.603C147.493 115.729 146.491 115.854 145.457 115.983C145.583 115.733 145.708 115.482 145.837 115.224C146.339 115.224 146.84 115.224 147.357 115.224C147.223 115.035 147.09 114.847 146.953 114.654C146.422 113.238 146.73 112.147 146.977 110.665Z" fill="#3B352E"/>
<path d="M61.8835 531.192C63.764 531.192 65.6444 531.192 67.5817 531.192C67.4564 531.568 67.331 531.944 67.2019 532.331C65.2295 532.412 63.7348 532.176 61.8835 531.571C61.8835 531.446 61.8835 531.321 61.8835 531.192Z" fill="#3B352E"/>
<path d="M38.331 350.37C39.5812 351.741 40.0581 352.697 40.2304 354.549C39.0907 354.169 39.0907 354.169 38.6396 353.528C38.2576 352.44 38.279 351.514 38.331 350.37Z" fill="#3B352E"/>
<path d="M280.695 220.071C282.604 220.244 283.79 221.208 285.253 222.35C285.128 222.726 285.002 223.102 284.873 223.49C284.536 223.2 284.199 222.91 283.852 222.611C282.855 221.775 281.818 221.111 280.695 220.451C280.695 220.325 280.695 220.2 280.695 220.071Z" fill="#3B352E"/>
<path d="M144.697 115.984C144.948 116.109 145.199 116.234 145.457 116.364C144.844 117.394 144.223 118.405 143.558 119.403C143.411 120.032 143.281 120.665 143.178 121.302C143.052 121.302 142.927 121.302 142.798 121.302C142.62 119.562 142.732 118.549 143.748 117.147C144.061 116.763 144.374 116.379 144.697 115.984Z" fill="#3B352E"/>
<path d="M59.2244 417.988C59.6564 419.281 59.5434 420.182 59.2481 421.502C59.1742 421.841 59.1002 422.18 59.024 422.529C58.9648 422.785 58.9055 423.042 58.8445 423.306C58.5938 423.181 58.343 423.056 58.0847 422.926C57.8473 421.953 57.8473 421.953 57.7048 421.027C58.0809 420.902 58.457 420.776 58.8445 420.647C58.8366 420.279 58.8288 419.911 58.8207 419.531C58.8445 418.368 58.8445 418.368 59.2244 417.988Z" fill="#3B352E"/>
<path d="M290.951 324.539C291.891 324.727 291.891 324.727 292.851 324.918C292.851 325.169 292.851 325.42 292.851 325.678C293.215 325.737 293.215 325.737 293.587 325.797C293.845 325.883 294.104 325.969 294.37 326.058C294.495 326.434 294.621 326.81 294.75 327.198C294.499 327.198 294.249 327.198 293.99 327.198C293.99 326.947 293.99 326.696 293.99 326.438C293.555 326.367 293.555 326.367 293.112 326.295C292.091 326.058 292.091 326.058 290.951 325.298C290.951 325.048 290.951 324.797 290.951 324.539Z" fill="#3B352E"/>
<path d="M272.337 248.182C273.215 248.432 274.092 248.683 274.996 248.942C275.122 249.568 275.247 250.195 275.376 250.841C274.868 250.544 274.362 250.242 273.857 249.939C273.575 249.771 273.293 249.604 273.002 249.431C272.783 249.27 272.563 249.108 272.337 248.942C272.337 248.691 272.337 248.44 272.337 248.182Z" fill="#3B352E"/>
<path d="M338.816 363.665C339.067 363.665 339.317 363.665 339.576 363.665C339.362 365.162 338.938 366.229 338.056 367.464C337.805 367.464 337.555 367.464 337.296 367.464C337.718 366.139 338.156 364.89 338.816 363.665Z" fill="#3B352E"/>
<path d="M252.203 327.576C252.329 327.952 252.454 328.329 252.583 328.716C251.765 329.943 251.341 330.523 249.924 330.995C249.924 329.856 249.924 329.856 250.423 329.286C250.634 329.098 250.846 328.91 251.064 328.716C251.381 328.399 251.381 328.399 251.705 328.075C251.869 327.91 252.034 327.746 252.203 327.576Z" fill="#3B352E"/>
<path d="M99.8713 313.901C100.122 314.026 100.373 314.152 100.631 314.281C99.3775 315.409 98.1239 316.537 96.8323 317.7C96.7069 317.449 96.5816 317.198 96.4524 316.94C97.295 315.654 98.1528 315.02 99.4914 314.281C99.6168 314.155 99.7422 314.03 99.8713 313.901Z" fill="#3B352E"/>
<path d="M273.477 242.864C273.602 242.864 273.728 242.864 273.857 242.864C273.904 245.381 273.904 245.381 273.477 246.663C273.101 246.663 272.725 246.663 272.337 246.663C272.454 246.101 272.573 245.539 272.693 244.977C272.792 244.508 272.792 244.508 272.894 244.029C273.097 243.244 273.097 243.244 273.477 242.864Z" fill="#3B352E"/>
<path d="M103.67 236.405C104.941 236.617 105.962 236.919 107.089 237.545C107.089 237.67 107.089 237.795 107.089 237.925C106.086 237.925 105.084 237.925 104.05 237.925C103.925 237.423 103.8 236.922 103.67 236.405Z" fill="#3B352E"/>
<path d="M295.51 227.289C296.946 227.941 297.504 228.485 298.169 229.948C298.24 231.206 298.24 231.206 298.169 232.227C298.064 232.013 297.959 231.8 297.851 231.58C297.393 230.675 296.907 229.789 296.412 228.903C296.243 228.599 296.073 228.296 295.899 227.983C295.77 227.754 295.642 227.525 295.51 227.289Z" fill="#3B352E"/>
<path d="M154.954 156.251C155.079 156.251 155.205 156.251 155.334 156.251C155.334 157.253 155.334 158.256 155.334 159.29C154.08 159.415 152.827 159.54 151.535 159.67C152.471 158.734 153.323 158.531 154.574 158.15C154.7 157.523 154.825 156.896 154.954 156.251Z" fill="#444444"/>
<path d="M130.642 606.409C130.767 606.409 130.892 606.409 131.021 606.409C131.13 609.231 131.13 609.231 130.262 610.588C130.136 610.588 130.011 610.588 129.882 610.588C129.935 609.962 129.991 609.337 130.048 608.712C130.079 608.364 130.11 608.016 130.142 607.657C130.262 606.789 130.262 606.789 130.642 606.409Z" fill="#3B352E"/>
<path d="M351.352 341.633C351.732 342.772 351.732 342.772 351.437 343.548C351.291 343.817 351.146 344.086 350.996 344.363C350.852 344.635 350.707 344.907 350.558 345.187C350.387 345.496 350.387 345.496 350.213 345.811C350.087 345.811 349.962 345.811 349.833 345.811C349.833 345.059 349.833 344.307 349.833 343.532C350.083 343.532 350.334 343.532 350.593 343.532C350.675 343.168 350.675 343.168 350.759 342.796C350.972 342.012 350.972 342.012 351.352 341.633Z" fill="#3B352E"/>
<path d="M251.823 333.655C252.576 334.031 252.576 334.031 253.343 334.415C253.218 335.292 253.092 336.17 252.963 337.074C252.587 336.823 252.211 336.573 251.823 336.314C251.752 334.937 251.752 334.937 251.823 333.655Z" fill="#3B352E"/>
<path d="M93.4136 256.919C93.6643 257.044 93.915 257.17 94.1733 257.299C93.4418 258.226 92.7294 259.123 91.894 259.958C91.3926 259.833 90.8911 259.707 90.3745 259.578C91.3774 258.701 92.3803 257.823 93.4136 256.919Z" fill="#3B352E"/>
<path d="M278.795 240.585C278.415 241.154 278.415 241.154 277.655 241.724C276.623 241.828 275.658 241.776 274.616 241.724C274.742 241.474 274.867 241.223 274.996 240.964C276.275 240.609 277.472 240.547 278.795 240.585Z" fill="#3B352E"/>
<path d="M279.175 547.527C279.551 547.527 279.927 547.527 280.315 547.527C280.792 548.631 281.074 549.349 281.074 550.566C280.125 550.115 280.125 550.115 279.175 549.427C279.056 548.406 279.056 548.406 279.175 547.527Z" fill="#3B352E"/>
<path d="M97.2124 535.751C99.6904 535.611 99.6904 535.611 100.608 536.321C100.741 536.509 100.874 536.697 101.011 536.891C100.886 537.267 100.76 537.643 100.631 538.03C100.381 537.654 100.13 537.278 99.8716 536.891C99.2416 536.749 98.6082 536.622 97.9722 536.511C97.7214 536.26 97.4707 536.009 97.2124 535.751Z" fill="#3B352E"/>
<path d="M106.709 308.203C106.96 308.203 107.211 308.203 107.469 308.203C107.012 309.15 106.537 309.981 105.95 310.862C105.574 310.862 105.198 310.862 104.81 310.862C104.935 310.361 105.061 309.859 105.19 309.342C105.691 309.217 106.193 309.092 106.709 308.963C106.709 308.712 106.709 308.461 106.709 308.203Z" fill="#3B352E"/>
<path d="M50.4873 297.567C50.6126 297.817 50.738 298.068 50.8672 298.326C50.115 299.204 49.3628 300.081 48.5879 300.986C48.3372 300.86 48.0864 300.735 47.8281 300.606C48.7056 299.603 49.5832 298.6 50.4873 297.567Z" fill="#3B352E"/>
<path d="M100.251 251.981C101.011 252.361 101.011 252.361 101.011 252.361L100.251 251.981ZM99.8716 252.361C99.8716 253.5 99.8716 253.5 99.373 254.027C98.7794 254.485 98.1858 254.942 97.5923 255.4C97.3416 255.275 97.0908 255.149 96.8325 255.02C97.8354 254.142 98.8383 253.265 99.8716 252.361Z" fill="#3B352E"/>
<path d="M108.989 239.825C109.365 239.825 109.741 239.825 110.128 239.825C110.254 240.577 110.379 241.329 110.508 242.104C110.007 242.104 109.505 242.104 108.989 242.104C108.989 241.352 108.989 240.6 108.989 239.825Z" fill="#3B352E"/>
<path d="M105.19 218.932C105.582 219.991 105.587 220.401 105.214 221.496C105.08 221.778 104.947 222.06 104.81 222.351C104.559 222.351 104.309 222.351 104.05 222.351C104.335 219.787 104.335 219.787 105.19 218.932Z" fill="#3B352E"/>
<path d="M148.496 58.6215C148.872 58.7468 149.248 58.8722 149.636 59.0013C149.385 59.2521 149.135 59.5028 148.876 59.7611C148.725 60.5164 148.596 61.2766 148.496 62.0404C148.246 62.0404 147.995 62.0404 147.737 62.0404C147.689 60.7583 147.689 60.7583 147.737 59.3812C147.987 59.1305 148.238 58.8798 148.496 58.6215Z" fill="#3B352E"/>
<path d="M102.531 543.349C102.781 543.349 103.032 543.349 103.29 543.349C103.29 543.725 103.29 544.101 103.29 544.488C103.541 544.238 103.792 543.987 104.05 543.729C103.955 544.441 103.955 544.441 103.67 545.248C102.887 545.723 102.887 545.723 102.151 546.008C102.276 545.13 102.401 544.253 102.531 543.349Z" fill="#3B352E"/>
<path d="M56.9451 384.56C57.3211 384.56 57.6972 384.56 58.0847 384.56C58.4851 386.072 58.4042 387.212 58.0847 388.738C57.9593 388.738 57.834 388.738 57.7048 388.738C57.4541 387.359 57.2034 385.98 56.9451 384.56Z" fill="#626262"/>
<path d="M85.436 225.769C85.5614 226.27 85.6868 226.772 85.8159 227.288C86.051 227.335 86.286 227.382 86.5282 227.431C87.3354 227.668 87.3354 227.668 88.0952 228.428C87.2177 228.303 86.3401 228.177 85.436 228.048C85.0562 226.908 85.0562 226.908 85.436 225.769Z" fill="#353535"/>
<path d="M158.373 90.1509C158.498 90.1509 158.624 90.1509 158.753 90.1509C158.872 91.2194 158.872 91.2194 158.753 92.4302C157.851 93.1662 157.851 93.1662 156.854 93.5699C156.603 93.4445 156.352 93.3191 156.094 93.19C156.399 92.9001 156.705 92.6102 157.02 92.3115C158.057 91.3687 158.057 91.3687 158.373 90.1509Z" fill="#474747"/>
<path d="M283.354 553.604C284.231 554.231 285.109 554.858 286.013 555.504C285.261 555.88 285.261 555.88 284.493 556.264C283.354 554.887 283.354 554.887 283.354 553.604Z" fill="#3B352E"/>
<path d="M58.4648 386.078C58.7155 386.203 58.9662 386.329 59.2245 386.458C59.2245 387.21 59.2245 387.962 59.2245 388.737C58.8484 388.737 58.4724 388.737 58.0849 388.737C58.0687 387.977 58.0694 387.217 58.0849 386.458C58.2102 386.332 58.3356 386.207 58.4648 386.078Z" fill="#3B352E"/>
<path d="M92.6538 356.449C93.6985 356.544 93.6985 356.544 94.5532 356.828C94.5532 357.079 94.5532 357.33 94.5532 357.588C94.2711 357.58 93.9891 357.573 93.6985 357.565C92.766 357.586 92.0228 357.705 91.1343 357.968C91.7753 357.185 91.7753 357.185 92.6538 356.449Z" fill="#3B352E"/>
<path d="M302.348 340.113C302.846 341.608 302.44 342.44 301.968 343.912C301.717 343.912 301.466 343.912 301.208 343.912C301.325 343.349 301.444 342.788 301.564 342.226C301.663 341.757 301.663 341.757 301.764 341.278C301.968 340.493 301.968 340.493 302.348 340.113Z" fill="#3B352E"/>
<path d="M335.397 305.544C336.109 305.592 336.109 305.592 336.917 305.924C337.392 307.087 337.392 307.087 337.676 308.203C335.853 307.268 335.853 307.268 335.468 306.233C335.445 306.005 335.421 305.778 335.397 305.544Z" fill="#3B352E"/>
<path d="M94.9331 256.919C94.3667 258.361 93.5059 259.05 92.2739 259.958C93.3417 256.919 93.3417 256.919 94.9331 256.919Z" fill="#3B352E"/>
<path d="M252.583 614.006C253.533 614.528 253.533 614.528 254.483 615.146C254.483 615.396 254.483 615.647 254.483 615.906C253.856 615.906 253.229 615.906 252.583 615.906C252.583 615.279 252.583 614.652 252.583 614.006Z" fill="#3B352E"/>
<path d="M342.235 357.967C342.615 359.106 342.615 359.106 342.069 360.317C341.775 360.846 341.775 360.846 341.475 361.386C341.099 361.386 340.723 361.386 340.336 361.386C340.905 360.204 341.551 359.086 342.235 357.967Z" fill="#3B352E"/>
<path d="M261.7 353.409C262.076 353.597 262.076 353.597 262.46 353.789C262.46 354.04 262.46 354.291 262.46 354.549C262.961 354.549 263.463 354.549 263.979 354.549C263.979 354.8 263.979 355.05 263.979 355.309C263.267 355.546 263.267 355.546 262.46 355.689C262.209 355.438 261.959 355.187 261.7 354.929C261.7 354.427 261.7 353.926 261.7 353.409Z" fill="#3B352E"/>
<path d="M84.6765 264.516C84.8019 264.767 84.9272 265.017 85.0564 265.276C84.4296 266.028 83.8028 266.78 83.157 267.555C83.0316 267.179 82.9063 266.803 82.7771 266.415C83.4039 265.789 84.0307 265.162 84.6765 264.516Z" fill="#3B352E"/>
<path d="M287.153 233.367C287.403 233.493 287.654 233.618 287.912 233.747C287.551 234.192 287.186 234.635 286.82 235.077C286.617 235.323 286.415 235.57 286.206 235.825C286.017 236.016 285.828 236.208 285.633 236.406C285.382 236.406 285.132 236.406 284.873 236.406C285.421 235.128 286.139 234.313 287.153 233.367Z" fill="#3B352E"/>
<path d="M152.295 92.811C152.671 92.811 153.047 92.811 153.435 92.811C153.56 93.1871 153.686 93.5632 153.815 93.9507C153.188 94.2014 152.561 94.4521 151.915 94.7104C151.665 94.4597 151.414 94.209 151.156 93.9507C151.532 93.8253 151.908 93.7 152.295 93.5708C152.295 93.3201 152.295 93.0694 152.295 92.811Z" fill="#3B352E"/>
<path d="M55.0456 521.315C55.2964 521.44 55.5471 521.566 55.8054 521.695C55.5547 522.322 55.304 522.949 55.0456 523.594C54.6696 523.594 54.2935 523.594 53.906 523.594C53.906 523.093 53.906 522.592 53.906 522.075C54.2821 521.824 54.6582 521.573 55.0456 521.315Z" fill="#3B352E"/>
<path d="M52.3865 372.023C52.8879 372.023 53.3894 372.023 53.906 372.023C53.7806 373.026 53.6553 374.029 53.5261 375.062C53.4008 375.062 53.2754 375.062 53.1462 375.062C52.8955 374.059 52.6448 373.056 52.3865 372.023Z" fill="#3B352E"/>
</g>
<defs>
<clipPath id="clip0_5_240">
<rect width="373.042" height="615.406" fill="white" transform="translate(0.172119 0.382812)"/>
</clipPath>
</defs>
</svg>
